<svg id="Layer_3" data-name="Layer 3" xmlns="http://www.w3.org/2000/svg" xmlns:xlink="http://www.w3.org/1999/xlink" viewBox="0 0 3888 1080">
  <defs>
    <style>
      .cls-1, .cls-6, .cls-8 {
        fill: none;
      }

      .cls-2 {
        fill: #231f20;
      }

      .cls-3 {
        clip-path: url(#clip-path);
      }

      .cls-4 {
        fill-opacity: 0.07;
        fill: url(#New_Pattern);
      }

      .cls-5, .cls-7, .cls-9 {
        fill: #fff;
      }

      .cls-5, .cls-6, .cls-7, .cls-8 {
        stroke: #000;
        stroke-width: 3px;
      }

      .cls-5, .cls-6 {
        stroke-linecap: round;
        stroke-linejoin: round;
      }

      .cls-7, .cls-8 {
        stroke-miterlimit: 10;
      }
    </style>
    <clipPath id="clip-path">
      <rect class="cls-1" y="0.45" width="3888" height="1079.11"/>
    </clipPath>
    <pattern id="New_Pattern" data-name="New Pattern" width="150.5" height="117.56" patternTransform="translate(-93 16)" patternUnits="userSpaceOnUse" viewBox="0 0 150.5 117.56">
      <rect class="cls-1" width="150.5" height="117.56"/>
      <path class="cls-2" d="M125.53,147.39c4.37-9.88,12-17.74,20.17-24.56,2.31-1.93,4.69-3.78,7.09-5.59a1.64,1.64,0,0,0,.56-2.17,1.59,1.59,0,0,0-2.16-.57c-8.86,6.7-17.57,13.92-23.87,23.18a51.08,51.08,0,0,0-4.53,8.11,1.63,1.63,0,0,0,.57,2.17,1.61,1.61,0,0,0,2.17-.57Z"/>
      <path class="cls-2" d="M-25,147.39c4.37-9.88,12-17.74,20.17-24.56,2.31-1.93,4.69-3.78,7.09-5.59a1.64,1.64,0,0,0,.56-2.17,1.59,1.59,0,0,0-2.16-.57c-8.86,6.7-17.57,13.92-23.87,23.18a51.08,51.08,0,0,0-4.53,8.11,1.64,1.64,0,0,0,.57,2.17,1.61,1.61,0,0,0,2.17-.57Z"/>
      <g>
        <path class="cls-2" d="M148.59,114l.31,0c.17,0-.43-.07-.07,0l.56.12.5.16.25.09c-.42-.09-.18-.08-.06,0a7.59,7.59,0,0,1,1,.57l.22.16c.26.19-.29-.25,0,0l.43.38.4.41.17.21c.19.22-.21-.3,0,0a6.31,6.31,0,0,1,.58.93l.12.24.06.12c.06.15,0,.11-.06-.14a4.24,4.24,0,0,0,.18.5c0,.17.09.34.13.51s0,.18,0,.26c.06.28,0-.42,0,0a1.71,1.71,0,0,0,.46,1.12,1.64,1.64,0,0,0,1.12.47,1.61,1.61,0,0,0,1.59-1.59,8.46,8.46,0,0,0-7.87-7.63,1.59,1.59,0,0,0-1.59,1.58,1.62,1.62,0,0,0,1.59,1.58Z"/>
        <path class="cls-2" d="M148.73,113.4c.87-.31,1.71-.69,2.57-1q.62-.24,1.26-.42l.64-.16.33,0c.29-.06-.37,0,.05,0a9.17,9.17,0,0,1,1,0c-.34,0,.1,0,.23,0a4.74,4.74,0,0,1,.5.15c.16.05.1,0,0,0l.23.11.27.16s.25.18.1.06.05,0,.07.08.12.13.18.18-.11-.19,0,0,.12.18.17.27a1.59,1.59,0,0,0,2.74-1.6,5.78,5.78,0,0,0-5.12-2.61c-2.17,0-4.09,1.06-6.08,1.79a1.58,1.58,0,1,0,.84,3.05Z"/>
      </g>
      <g>
        <path class="cls-2" d="M33.24,104a9.24,9.24,0,0,1-7-5.23,8.19,8.19,0,0,1-.63-2.06,3.5,3.5,0,0,1,0-1c0-.31.11-.34.32-.43a1.93,1.93,0,0,1,.69,0,3.2,3.2,0,0,1,.72.36A8.9,8.9,0,0,1,29,97.54a1.59,1.59,0,0,0,2.65-.69,10.18,10.18,0,0,1,.56-2.5,2.26,2.26,0,0,1,1-1.14,2,2,0,0,1,1.64.12A2.85,2.85,0,0,1,36,94.44a5.5,5.5,0,0,1-.27,4.87,43.61,43.61,0,0,1-3.55,5.29,1.53,1.53,0,0,0,0,1.6l.9,1.32a1.63,1.63,0,0,0,2.17.57,1.61,1.61,0,0,0,.57-2.17l-.91-1.32v1.6c1.54-2.23,3.36-4.3,4.22-6.92.81-2.43.69-5.37-1.07-7.37a5.63,5.63,0,0,0-5.94-1.69c-2.45.92-3.24,3.42-3.59,5.78l2.65-.7c-1.5-1.93-3.59-3.76-6.23-3-2.86.84-2.92,4-2.18,6.37a12.21,12.21,0,0,0,9.6,8.41,1.65,1.65,0,0,0,2-1.11A1.6,1.6,0,0,0,33.24,104Z"/>
        <path class="cls-2" d="M98,57.88c-.15.32.19-.15,0,0s.25-.28,0,0c0,0,.35-.16.07-.05.22-.09.24,0,.08,0-.39,0,.36,0,0,0,.05,0,.3.17.06,0,.44.28,0,0,.06,0,.11.16.11.15,0,0l0,.1,0-.14c0,.15,0,.16,0,0s0-.39,0-.11c0-.1,0-.2.08-.3-.06.22,0,0,0,0a2.27,2.27,0,0,1,.76-.78,11.87,11.87,0,0,1,1.3-.75,8.91,8.91,0,0,1,1.43-.61,5,5,0,0,1,1.29-.26c.14,0,.28,0,.42,0s-.33-.1.16,0a2.06,2.06,0,0,1,.57.19s.38.25.21.12.19.17.17.16.38.46.23.24a5.13,5.13,0,0,1,.36.65c0-.08-.08-.25,0,0,0,.14.09.28.12.43,0,0,.08.46,0,.23s0,.26,0,.24a4.66,4.66,0,0,1,0,.65c0-.22,0,.15,0,.19s-.07.29-.11.44-.07.22-.11.33-.17.43-.1.29a9.21,9.21,0,0,1-.8,1.4l-.25.36c-.18.24.23-.27-.11.13a7.84,7.84,0,0,1-.54.61c-.17.17-.35.34-.54.5s.29-.18-.13.09l-.27.18-.36.19c-.25.13.33-.1-.14.06a4.61,4.61,0,0,1-.73.19c.28,0,0,0,0,0h-.45c.29,0,0,0-.1,0a4.13,4.13,0,0,1-.5-.15c.08,0,.2.11,0,0,0,0-.37-.29-.16-.1l-.21-.21c.24.24,0,0,0-.09-.19-.27,0,.14,0,0a1.27,1.27,0,0,0-.1-.37c-.06-.19,0,.33,0,0,0-.1.06-.47,0-.08l.06-.25c0-.31-.14.17,0-.08,0,0,.12-.32.09-.14s-.06.09,0,0c-.16.12-.17.13,0,0a1.64,1.64,0,0,0,.57-2.17,1.61,1.61,0,0,0-2.17-.57,3.89,3.89,0,0,0-1.64,4.14,4.23,4.23,0,0,0,3.19,3.17c3.4.84,6.31-1.75,7.83-4.54a7.86,7.86,0,0,0,1-5.08A5.49,5.49,0,0,0,106,52.44a6.2,6.2,0,0,0-5.11-.26,12.06,12.06,0,0,0-4.34,2.42c-1.43,1.36-2,3.89-.5,5.43,1.27,1.3,3.85,1.21,4.68-.55a1.63,1.63,0,0,0-.56-2.17,1.59,1.59,0,0,0-2.17.57Z"/>
        <path class="cls-2" d="M98.53,62.58a6.74,6.74,0,0,1-7.4-7.32A7.39,7.39,0,0,1,99.72,49a8.43,8.43,0,0,1,5.57,3.78c1.06,1.74,3.8.15,2.73-1.59-3-4.94-9.9-7.16-15-4a10.92,10.92,0,0,0-4.84,6.68,9.51,9.51,0,0,0,1.92,8.23,9.72,9.72,0,0,0,8.42,3.66,1.63,1.63,0,0,0,1.59-1.58,1.61,1.61,0,0,0-1.59-1.59Z"/>
        <path class="cls-2" d="M106.52,53.05c3.5.11,6.17,3.66,6,7-.16,3.68-3.5,6.58-6.92,7.32a6.09,6.09,0,0,1-5.83-1.5c-1.37-1.52-3.6.72-2.24,2.24,3.78,4.2,10.63,2.82,14.44-.54a10.21,10.21,0,0,0,1.81-13.66,9.42,9.42,0,0,0-7.28-4.06c-2-.06-2,3.11,0,3.17Z"/>
        <path class="cls-2" d="M89.4,58.83A11.21,11.21,0,0,0,89.21,70a10.6,10.6,0,0,0,10,5.3,11.07,11.07,0,0,0,6.36-2.52,1.59,1.59,0,0,0,0-2.24,1.62,1.62,0,0,0-2.24,0,7.63,7.63,0,0,1-11.2-10.08c1.09-1.73-1.65-3.32-2.73-1.6Z"/>
        <path class="cls-2" d="M94.52,74.39c.89,1,1.39,2.27,2.32,3.25a9.68,9.68,0,0,0,3.36,2.21,11.94,11.94,0,0,0,8.23.11,20.45,20.45,0,0,0,7.39-4.56,12.77,12.77,0,0,0,4-6.94,8.89,8.89,0,0,0-2.5-8.15c-1.51-1.36-3.76.87-2.24,2.24a5.64,5.64,0,0,1,1.71,4.94,9.43,9.43,0,0,1-3,5.4c-3.07,3-7.75,5.62-12.15,4.15a6.47,6.47,0,0,1-2.62-1.64c-.92-1-1.42-2.26-2.32-3.25-1.38-1.52-3.61.73-2.24,2.24Z"/>
        <path class="cls-2" d="M98.8,46.84a8.93,8.93,0,0,1,13,1.95,15.12,15.12,0,0,1,1.32,2.52q.27.63.51,1.26a4.8,4.8,0,0,0,.25.73c.07.09.24-.25.6-.28a1.59,1.59,0,0,0,0,3.17,2.73,2.73,0,0,0,2.56-3.06,12.37,12.37,0,0,0-1.35-3.79,13,13,0,0,0-4.82-5.77,12.25,12.25,0,0,0-14.33,1,1.58,1.58,0,0,0,2.24,2.24Z"/>
        <path class="cls-2" d="M114.76,46.93c4.37-.45,6.64,3.88,7.39,7.53a10.32,10.32,0,0,1-.23,6.27,17.11,17.11,0,0,1-4,4.88c-1.47,1.43.77,3.67,2.24,2.24a19.06,19.06,0,0,0,4.72-6.13,14,14,0,0,0,.23-8.36,13.82,13.82,0,0,0-3.46-6.89,8.78,8.78,0,0,0-6.93-2.71,1.62,1.62,0,0,0-1.58,1.58,1.61,1.61,0,0,0,1.58,1.59Z"/>
        <path class="cls-2" d="M89.55,66.34a31.83,31.83,0,0,1-3.39-8.23c-.64-2.51-1.33-5.57-.36-8.09.85-2.23,3.26-3.87,5.42-4.67a12.71,12.71,0,0,1,7.54-.49c2,.5,2.83-2.56.85-3A15.76,15.76,0,0,0,85.78,45a9.68,9.68,0,0,0-3.54,6.74,22.73,22.73,0,0,0,1,7.81,34.77,34.77,0,0,0,3.56,8.43,1.58,1.58,0,0,0,2.74-1.59Z"/>
        <path class="cls-2" d="M82.81,60.7a32.3,32.3,0,0,0-.89,8.88c0,2.5.12,5.36,2.09,7.18a11.69,11.69,0,0,0,3.52,2,38.5,38.5,0,0,0,4.15,1.58,14.09,14.09,0,0,0,8.66.23c1.92-.65,1.1-3.71-.84-3a11.11,11.11,0,0,1-6.84-.19A37.08,37.08,0,0,1,89.14,76a10.68,10.68,0,0,1-2.89-1.48c-1.41-1.24-1.16-3.69-1.16-5.38a27.71,27.71,0,0,1,.78-7.6,1.59,1.59,0,0,0-3.06-.84Z"/>
        <path class="cls-2" d="M93.74,42.77c3.8-2.87,8.53-3.69,13.19-3.76a24.5,24.5,0,0,1,7.15.55c1.69.51,3.42,2,2.63,3.92a1.6,1.6,0,0,0,1.11,2,1.62,1.62,0,0,0,1.94-1.11,5.6,5.6,0,0,0-1.4-5.82c-1.63-1.74-4.08-2.29-6.38-2.49a38,38,0,0,0-13.18.86A19.46,19.46,0,0,0,92.14,40a1.64,1.64,0,0,0-.56,2.17,1.59,1.59,0,0,0,2.16.57Z"/>
        <path class="cls-2" d="M83.79,69.59c-1-1.93-2.38-3.62-3.31-5.59a22.2,22.2,0,0,1-1.62-6.27c-.25-1.66-1-4,.38-5.37a6,6,0,0,1,4.94-1.64,1.63,1.63,0,0,0,1.94-1.1A1.59,1.59,0,0,0,85,47.67a9.39,9.39,0,0,0-7.13,1.7,6.14,6.14,0,0,0-2.34,3.17,9.63,9.63,0,0,0,0,3.93,32.91,32.91,0,0,0,1.68,7.85c1,2.48,2.67,4.51,3.87,6.87.92,1.82,3.65.22,2.73-1.6Z"/>
        <path class="cls-2" d="M78.88,50.61c.74-4.7,4.12-8.34,8.28-10.42a25.59,25.59,0,0,1,7.66-2.25,29,29,0,0,1,3.83-.34,3,3,0,0,1,2.47.74c1.36,1.52,3.6-.72,2.24-2.24-1.53-1.72-3.94-1.75-6.06-1.59a36.25,36.25,0,0,0-7.25,1.21,21.29,21.29,0,0,0-11.37,7.45,15,15,0,0,0-2.86,6.6,1.64,1.64,0,0,0,1.11,1.95,1.6,1.6,0,0,0,1.95-1.11Z"/>
        <path class="cls-2" d="M101.16,77.68l-.52.52a1.08,1.08,0,0,0-.33.51,1.4,1.4,0,0,0,0,1.22,1.08,1.08,0,0,0,.33.51l.32.25a1.57,1.57,0,0,0,.8.21l.42-.05a1.61,1.61,0,0,0,.7-.41l.52-.52a1.14,1.14,0,0,0,.32-.51,1.4,1.4,0,0,0,0-1.22,1.14,1.14,0,0,0-.32-.51l-.32-.25a1.62,1.62,0,0,0-.8-.21l-.42,0a1.55,1.55,0,0,0-.7.41Z"/>
        <path class="cls-2" d="M101.48,77.43l-1.33.91a1.62,1.62,0,0,0-.57,2.16c2.39,4.6,3.21,9.8,5.18,14.56s4.82,8.84,9.63,10.76a11,11,0,0,0,7.71.26,1.62,1.62,0,0,0,1.11-2,1.6,1.6,0,0,0-1.95-1.11c-4,1.43-8-.69-10.53-3.74-2.89-3.5-4-8.12-5.34-12.37a46.77,46.77,0,0,0-3.07-8l-.57,2.17,1.33-.9c1.67-1.14.09-3.89-1.6-2.74Z"/>
        <path class="cls-2" d="M105.66,94.42a1.59,1.59,0,0,0,0-3.17,1.59,1.59,0,0,0,0,3.17Z"/>
        <path class="cls-2" d="M102.86,89.24A39.48,39.48,0,0,0,99,92.94q-.87,1-1.68,2a13.07,13.07,0,0,0-1.53,2.17c-.78,1.59-.9,3.8,1,4.67a5.13,5.13,0,0,0,3.1.16,10.2,10.2,0,0,0,2.5-.83,22.26,22.26,0,0,0,4.85-3.31,1.59,1.59,0,0,0,0-2.24,1.61,1.61,0,0,0-2.24,0c-.74.61-1.18,1-2,1.51a14.2,14.2,0,0,1-2.33,1.34l-.39.15-.63.19-.64.14H99l-.33,0a2.56,2.56,0,0,1-.62,0,.23.23,0,0,1,.22.06c-.17-.1-.17-.1,0,0s.14.18.06,0c.08.2.1.22.05,0,0,.23,0,.25,0,.07s0-.16,0,0,.09-.25.1-.3.06-.17,0,0l.12-.25a8.3,8.3,0,0,1,.67-1c.49-.66,1.07-1.38,1.68-2.07a38.52,38.52,0,0,1,4.14-4,1.59,1.59,0,0,0,0-2.24,1.62,1.62,0,0,0-2.24,0Z"/>
        <path class="cls-2" d="M105.93,91.35l.93-.45.22-.1.48-.19A17.23,17.23,0,0,1,109.4,90l.89-.22c.18,0,.17,0,0,0h.26c.19,0,.18,0,0,0l.15,0c.27.07-.38-.17,0,0s-.25-.25-.07,0l.11.11-.11-.14c0,.09.12.19.17.28s-.13-.4,0,0a1.67,1.67,0,0,0,.08.32c-.06-.12,0-.39,0-.08a1.82,1.82,0,0,1,0,.33c0,.43.08-.26,0,0l-.09.32c-.08.29.18-.32,0-.05s-.15.24-.22.37-.08.11.06-.07a1.83,1.83,0,0,1-.13.16,2.76,2.76,0,0,1-.29.3l-.32.29c-.27.24.28-.2,0,0a17.15,17.15,0,0,1-1.46.93,1.59,1.59,0,0,0,1.6,2.74c2-1.14,4.1-2.73,4-5.25a3.94,3.94,0,0,0-1.27-2.91,3.39,3.39,0,0,0-2.08-.81,6.67,6.67,0,0,0-2.08.35,21.37,21.37,0,0,0-4.16,1.66,1.59,1.59,0,0,0-.57,2.17,1.61,1.61,0,0,0,2.16.56Z"/>
        <path class="cls-2" d="M20.29,87.57a108.8,108.8,0,0,1,2.08-30.76q.93-4.34,2.2-8.57c.59-2-2.47-2.8-3.05-.85a111.69,111.69,0,0,0-4.7,31.19c0,3,.08,6,.3,9a1.59,1.59,0,1,0,3.17,0Z"/>
        <path class="cls-2" d="M20,86a7.29,7.29,0,0,0-1.9-4A30.66,30.66,0,0,0,15,79.24a35.13,35.13,0,0,1-6.12-6.88l-1,2.32A6.62,6.62,0,0,1,16,80a1.62,1.62,0,0,0,1.58,1.58c.77,0,1.7-.73,1.59-1.58a10,10,0,0,0-4-6.9,9.76,9.76,0,0,0-8-1.5,1.59,1.59,0,0,0-1,2.32,37.51,37.51,0,0,0,6,6.93c1,.89,2.05,1.68,3,2.58a8.32,8.32,0,0,1,1.12,1.23,3.34,3.34,0,0,1,.59,1.3,1.64,1.64,0,0,0,1.59,1.58c.77,0,1.7-.73,1.58-1.58Z"/>
        <path class="cls-2" d="M22.93,49.14c5.41,1.44,11-1.34,14.25-5.63C40.8,38.75,41.7,32.6,42.1,26.79a103.24,103.24,0,0,1,1-11.11c.27-1.47-1.47-2.77-2.64-1.54l-.35.35c-1.41,1.47.83,3.71,2.24,2.24l.35-.35L40,14.84c-1.06,5.89-.68,11.94-1.79,17.82-.91,4.81-2.92,9.73-7.35,12.28a9.41,9.41,0,0,1-7.13,1.14,1.59,1.59,0,0,0-.84,3.06Z"/>
        <path class="cls-2" d="M22.41,46.42l.07-.05.8-.22c.06,0,.16.16,0,0A3.37,3.37,0,0,0,23,46c-.24-.19-.46-.4-.68-.6a10.7,10.7,0,0,1-1.38-1.56,12.35,12.35,0,0,1-1.8-3.59,13.14,13.14,0,0,1,0-8,15.48,15.48,0,0,1,4.68-6.91,24.8,24.8,0,0,1,8.1-4.19c3.53-1.28,7.28-2.47,10.46-4.51,1.72-1.09.13-3.83-1.59-2.73-3.13,2-6.8,3.11-10.25,4.38S23.77,21,21,23.56c-5,4.71-7.2,12.05-4.59,18.56a15.66,15.66,0,0,0,3,4.82c1.12,1.22,3.66,3.65,5.23,1.72a1.63,1.63,0,0,0,0-2.24,1.59,1.59,0,0,0-2.24,0Z"/>
        <path class="cls-2" d="M22.05,48.92a1.79,1.79,0,0,0,2.7-.17A1.94,1.94,0,0,0,24,45.92a51.94,51.94,0,0,0-4.82-2.3,13.57,13.57,0,0,1-6.24-6,22.57,22.57,0,0,1-2.26-8.41c-.33-3.56.06-7.14-.45-10.68S8,11.27,4.6,9.55C2.79,8.63,1.19,11.36,3,12.29c5.66,2.88,4.14,10.87,4.47,16,.34,5.44,1.83,11.28,5.91,15.16a17,17,0,0,0,4.23,2.89c.83.41,1.67.78,2.51,1.16l1.12.53a5,5,0,0,1,1.11.56L22,47.9l.07.18v-.85l-.05.14.73-.95-.12.09.8-.22-.13,0,1.12.46-.08-.09c-1.43-1.45-3.67.79-2.24,2.24Z"/>
        <path class="cls-2" d="M3.65,12.58c2.18.57,4.59.36,6.65,1.32a14,14,0,0,1,4,3.14c2.66,2.73,5.06,5.78,8.77,7.1A1.59,1.59,0,0,0,25.05,23a1.61,1.61,0,0,0-1.11-1.94c-3.34-1.2-5.51-4.49-8-6.89A15.48,15.48,0,0,0,11.53,11c-2.26-1-4.69-.86-7-1.47-2-.52-2.82,2.54-.84,3.05Z"/>
        <path class="cls-2" d="M14.73,13.76l0-7.09L12.07,7.79c1.63,1.57,3.32,3.06,5.09,4.46a36.36,36.36,0,0,0,5.41,3.81,16.47,16.47,0,0,0,6.57,1.68,69.66,69.66,0,0,0,7.08.19,1.6,1.6,0,0,0,1.12-2.7l-.45-.51c-1.35-1.53-3.59.72-2.24,2.24l.45.51,1.12-2.71q-3.26.08-6.49-.14a13.57,13.57,0,0,1-5.81-1.43,48.79,48.79,0,0,1-9.61-7.64,1.6,1.6,0,0,0-2.7,1.12l0,7.09a1.59,1.59,0,0,0,3.17,0Z"/>
        <path class="cls-2" d="M25.1,16.41c5-1.18,10.3-4.13,13.31-8.43l-2.9-.38c.37,2.41.8,5.33-1.1,7.16-1.47,1.41.77,3.65,2.24,2.24,2.82-2.72,2.45-6.72,1.92-10.24a1.58,1.58,0,0,0-1.32-1.14,1.63,1.63,0,0,0-1.58.76A13.75,13.75,0,0,1,33.5,8.71a20.12,20.12,0,0,1-2.84,2,22.14,22.14,0,0,1-6.4,2.64,1.58,1.58,0,1,0,.84,3.05Z"/>
        <path class="cls-2" d="M70.18,30a8.84,8.84,0,0,0,3.29-4.56,12.29,12.29,0,0,0-.18-6.11c-.29-1.46-.52-3,.42-4.31.34-.45.17,0,.08-.14a.25.25,0,0,1-.27-.06c0-.06,0,0,.14.14s.23.41.32.64a11.17,11.17,0,0,1,.7,3A1.6,1.6,0,0,0,77.06,20a7.72,7.72,0,0,0,2.31-2.76,2.09,2.09,0,0,1,.79-.85s0,0,0,0l.1,0c-.07-.09,0-.06.09.08a4.3,4.3,0,0,1,.75,2.24,4.11,4.11,0,0,1-.43,3c-1.09,1.52-3.28,2-5,2.43-2.2.59-4.51,1.34-6,3.16a1.64,1.64,0,0,0,0,2.24,1.59,1.59,0,0,0,2.24,0C73.11,28,75,27.53,76.81,27.05a12.69,12.69,0,0,0,5.56-2.64c1.89-1.75,2.09-4.15,1.74-6.56-.28-1.89-1.17-4.13-3.25-4.58a3.69,3.69,0,0,0-3.53,1.37,12,12,0,0,0-1,1.53,2.91,2.91,0,0,1-.84,1.06l2.39,1.36c-.2-2.14-.66-5.32-2.72-6.52-2.39-1.39-4.59,1.2-5.06,3.35-.51,2.34.29,4.47.54,6.77a5.47,5.47,0,0,1-2,5A1.63,1.63,0,0,0,68,29.41a1.6,1.6,0,0,0,2.17.57Z"/>
        <path class="cls-2" d="M137.81,66.45c1.46-4.13.71-8.4-.83-12.37-.19-.5-.67-1.4-.33-1.91-.12.19.12,0,.21-.08a4.11,4.11,0,0,1,.6-.17,6.75,6.75,0,0,1,1.19-.22c.57,0,1.1,0,1.36.58a5.16,5.16,0,0,1,.09,2.47,1.59,1.59,0,0,0,2.7,1.12c.92-1.07,2.57-3,4.12-2.2s-.63,3.27-1.33,4c-2.86,2.81-6.94,3.52-10.33,5.4a3.91,3.91,0,0,0-2.18,3,2.89,2.89,0,0,0,2,3,1.58,1.58,0,1,0,.84-3c.12,0,.43.27.32.3l.43-.39a7.79,7.79,0,0,1,.76-.39c.91-.42,1.84-.79,2.77-1.18a30.31,30.31,0,0,0,5.77-2.91,11,11,0,0,0,4.27-5.13,4.29,4.29,0,0,0-2.72-5.77c-2.84-.79-5.2,1.1-6.93,3.12l2.7,1.12c.24-2.39-.18-5.08-2.75-6a6.84,6.84,0,0,0-3.78.07,4.11,4.11,0,0,0-3,2.13,4.85,4.85,0,0,0,.12,3.72,30.29,30.29,0,0,1,1.21,3.59,12.89,12.89,0,0,1-.29,7.33,1.59,1.59,0,0,0,1.1,2,1.61,1.61,0,0,0,1.95-1.11Z"/>
        <path class="cls-2" d="M125.53,29.82c4.37-9.88,12-17.73,20.17-24.56,2.31-1.92,4.69-3.77,7.09-5.59a1.62,1.62,0,0,0,.56-2.16,1.59,1.59,0,0,0-2.16-.57c-8.86,6.7-17.57,13.92-23.87,23.17a51.62,51.62,0,0,0-4.53,8.12,1.62,1.62,0,0,0,.57,2.16,1.59,1.59,0,0,0,2.17-.57Z"/>
        <path class="cls-2" d="M121.73,20.84a24.66,24.66,0,0,1,10.93,5.21,1.63,1.63,0,0,0,2.24,0,1.59,1.59,0,0,0,0-2.24,27.94,27.94,0,0,0-12.33-6,1.63,1.63,0,0,0-1.95,1.1,1.61,1.61,0,0,0,1.11,1.95Z"/>
        <path class="cls-2" d="M125.64,16.34a14.62,14.62,0,0,1,2.42.72c.06,0,.35.16.06,0l.25.12.55.26c.38.2.76.41,1.13.64s.68.45,1,.69h0l.27.21.46.4c.32.29.63.59.93.91l.41.45.17.21s.3.38.09.11a1.64,1.64,0,0,0,2.17.57,1.61,1.61,0,0,0,.57-2.17,16.55,16.55,0,0,0-9.64-6.2,1.59,1.59,0,0,0-.85,3.06Z"/>
        <path class="cls-2" d="M-1.91,114l.31,0c.17,0-.43-.07-.07,0a5.59,5.59,0,0,1,.56.12l.5.16.25.09c-.42-.09-.18-.08-.06,0a7,7,0,0,1,1,.57l.22.16c.26.19-.29-.25,0,0l.43.38c.14.13.27.27.4.41l.17.21c.19.22-.21-.3,0,0a6.31,6.31,0,0,1,.58.93c0,.08.08.16.12.24l.06.12-.06-.14c0,.17.13.34.18.5s.09.34.13.51,0,.18,0,.26c.06.28,0-.42,0,0a1.71,1.71,0,0,0,.46,1.12,1.64,1.64,0,0,0,1.12.47A1.61,1.61,0,0,0,6,118.46a8.4,8.4,0,0,0-2.53-5.26,8.43,8.43,0,0,0-5.34-2.37,1.59,1.59,0,0,0-1.59,1.58A1.62,1.62,0,0,0-1.91,114Z"/>
        <path class="cls-2" d="M-1.77,113.4c.87-.31,1.71-.69,2.57-1q.62-.24,1.26-.42l.65-.16.32,0c.29-.06-.37,0,.05,0a9.17,9.17,0,0,1,1,0c-.34,0,.11,0,.23,0a4.74,4.74,0,0,1,.5.15c.16.05.1,0,0,0l.23.11.27.16s.25.18.1.06,0,0,.08.08.11.13.17.18-.11-.19,0,0,.12.18.17.27a1.59,1.59,0,1,0,2.74-1.6,5.78,5.78,0,0,0-5.12-2.61c-2.17,0-4.09,1.06-6.08,1.79a1.61,1.61,0,0,0-1.1,1.94,1.59,1.59,0,0,0,1.94,1.11Z"/>
        <path class="cls-2" d="M6.49,119.28a20.29,20.29,0,0,0,2.29-6.36,1.72,1.72,0,0,0-.15-1.22,1.65,1.65,0,0,0-1-.73,1.61,1.61,0,0,0-1.95,1.11,18.75,18.75,0,0,1-.79,3l-.27.71a1.19,1.19,0,0,0-.08.2c.09-.22.1-.24,0-.08s-.09.19-.13.29c-.23.49-.47,1-.74,1.45a1.59,1.59,0,0,0,.57,2.16,1.61,1.61,0,0,0,2.17-.56Z"/>
        <path class="cls-2" d="M49.84,76.07a3.49,3.49,0,0,1,.24,1.48c0,.62.07,1.24.1,1.87l.22,4,.43,8.08c.11,2,3.28,2,3.17,0l-.47-8.7-.23-4.36a9.11,9.11,0,0,0-.73-4c-1-1.8-3.71-.2-2.73,1.6Z"/>
        <path class="cls-2" d="M53.28,92.61A66.54,66.54,0,0,1,67.8,84.89a1.62,1.62,0,0,0,1.1-2,1.59,1.59,0,0,0-2-1.1,70,70,0,0,0-15.27,8A1.63,1.63,0,0,0,51.11,92a1.61,1.61,0,0,0,2.17.57Z"/>
        <path class="cls-2" d="M51.33,75.62,56,73.77a1.74,1.74,0,0,0,.95-.73,1.63,1.63,0,0,0,.16-1.22,1.55,1.55,0,0,0-.73-.95,1.54,1.54,0,0,0-1.22-.16l-4.64,1.85a1.75,1.75,0,0,0-.94.73,1.58,1.58,0,0,0-.16,1.22,1.64,1.64,0,0,0,.72.95,1.61,1.61,0,0,0,1.23.16Z"/>
        <path class="cls-2" d="M55.11,73.5A64.21,64.21,0,0,0,66.7,79.19a1.58,1.58,0,1,0,.84-3,61,61,0,0,1-10.83-5.37,1.58,1.58,0,1,0-1.6,2.73Z"/>
        <path class="cls-2" d="M65.42,77.53a33,33,0,0,1,1,4.93l0-.42c0,.1,0,.2,0,.3a1.75,1.75,0,0,0,.46,1.12,1.6,1.6,0,0,0,1.12.46,1.62,1.62,0,0,0,1.12-.46,1.55,1.55,0,0,0,.46-1.12,37.55,37.55,0,0,0-1.13-5.66,1.59,1.59,0,0,0-3.06.85Z"/>
        <path class="cls-2" d="M50.18,76.19a21.22,21.22,0,0,0,7.72,6,19.77,19.77,0,0,0,9.57,1.62,1.62,1.62,0,0,0,1.58-1.58,1.6,1.6,0,0,0-1.58-1.59,16.72,16.72,0,0,1-8.2-1.29A18.93,18.93,0,0,1,52.42,74a1.6,1.6,0,0,0-2.24,0,1.62,1.62,0,0,0,0,2.24Z"/>
        <path class="cls-2" d="M54.54,73.86c.21.9.38,1.82.51,2.74L55,76.18c.12.92.2,1.84.24,2.77a1.59,1.59,0,0,0,3.17,0A32,32,0,0,0,57.6,73a1.61,1.61,0,0,0-2-1.11,1.63,1.63,0,0,0-1.11,2Z"/>
        <path class="cls-2" d="M59.73,81.88a14.57,14.57,0,0,0,4.94-2.33,1.7,1.7,0,0,0,.73-.94,1.57,1.57,0,0,0-.16-1.22,1.59,1.59,0,0,0-.94-.73,1.55,1.55,0,0,0-1.23.16,13.66,13.66,0,0,1-2.68,1.53l.38-.16a12.58,12.58,0,0,1-1.88.63,1.59,1.59,0,0,0,.84,3.06Z"/>
        <path class="cls-2" d="M58.75,112.84l8.41,7.37a1.64,1.64,0,0,0,1.92.24,1.6,1.6,0,0,0,.73-1.79,15,15,0,0,1-.13-8.71,1.6,1.6,0,0,0-2.32-1.79c-3.5,2.08-6.29,5.06-9,8a1.6,1.6,0,0,0-.33,1.73,1.57,1.57,0,0,0,1.45,1,38.83,38.83,0,0,0,12.31-3.44,1.6,1.6,0,0,0,.73-1.79A1.62,1.62,0,0,0,71,112.52a30.31,30.31,0,0,1-9.33-1.68,1.58,1.58,0,1,0-.84,3A33.22,33.22,0,0,0,71,115.69l-.8-3a34.22,34.22,0,0,1-10.71,3l1.12,2.7c2.54-2.78,5.12-5.61,8.37-7.55l-2.33-1.79a18.18,18.18,0,0,0,.13,10.41L69.4,118,61,110.6a1.58,1.58,0,0,0-2.24,2.24Z"/>
      </g>
      <path class="cls-2" d="M-25,29.82C-20.6,19.94-13,12.09-4.8,5.26-2.49,3.34-.11,1.49,2.29-.33a1.62,1.62,0,0,0,.56-2.16A1.59,1.59,0,0,0,.69-3.06c-8.86,6.7-17.57,13.92-23.87,23.17a51.62,51.62,0,0,0-4.53,8.12,1.63,1.63,0,0,0,.57,2.16A1.59,1.59,0,0,0-25,29.82Z"/>
      <path class="cls-2" d="M148.59-3.57l.31,0c.17,0-.43-.07-.07,0l.56.12a4.83,4.83,0,0,1,.5.16l.25.09c-.42-.1-.18-.08-.06,0a6.61,6.61,0,0,1,1,.57l.22.15c.26.19-.29-.24,0,0s.29.25.43.39l.4.41a1.63,1.63,0,0,0,.17.2c.19.22-.21-.29,0,0a7,7,0,0,1,.58.94l.12.23.06.12c.06.16,0,.11-.06-.13a5,5,0,0,0,.18.5c0,.17.09.34.13.51s0,.17,0,.26c.06.28,0-.42,0,0A1.73,1.73,0,0,0,153.75,2a1.63,1.63,0,0,0,1.12.46A1.6,1.6,0,0,0,156.46.9a8.43,8.43,0,0,0-2.53-5.26,8.49,8.49,0,0,0-5.34-2.38A1.61,1.61,0,0,0,147-5.15a1.62,1.62,0,0,0,1.59,1.58Z"/>
      <g>
        <path class="cls-2" d="M-1.91-3.57l.31,0c.17,0-.43-.07-.07,0a5.59,5.59,0,0,1,.56.12,4.16,4.16,0,0,1,.5.16l.25.09c-.42-.1-.18-.08-.06,0a6.15,6.15,0,0,1,1,.57l.22.15c.26.19-.29-.24,0,0s.29.25.43.39.27.27.4.41.11.14.17.2c.19.22-.21-.29,0,0a7,7,0,0,1,.58.94,2.53,2.53,0,0,1,.12.23l.06.12c.06.16,0,.11-.06-.13,0,.17.13.33.18.5s.09.34.13.51,0,.17,0,.26c.06.28,0-.42,0,0A1.73,1.73,0,0,0,3.25,2a1.63,1.63,0,0,0,1.12.46A1.6,1.6,0,0,0,6,.9,8.37,8.37,0,0,0,3.43-4.36,8.49,8.49,0,0,0-1.91-6.74,1.61,1.61,0,0,0-3.5-5.15,1.62,1.62,0,0,0-1.91-3.57Z"/>
        <path class="cls-2" d="M6.49,1.71A20.23,20.23,0,0,0,8.78-4.64a1.72,1.72,0,0,0-.15-1.22,1.65,1.65,0,0,0-1-.73A1.61,1.61,0,0,0,5.73-5.48a18.75,18.75,0,0,1-.79,3l-.27.7-.08.2c.09-.21.1-.24,0-.08s-.09.2-.13.3C4.26-.84,4-.36,3.75.11a1.6,1.6,0,0,0,.57,2.17,1.61,1.61,0,0,0,2.17-.57Z"/>
        <path class="cls-2" d="M58.75-4.73l8.41,7.37a1.64,1.64,0,0,0,1.92.25,1.6,1.6,0,0,0,.73-1.79,15.06,15.06,0,0,1-.13-8.72,1.6,1.6,0,0,0-2.32-1.79c-3.5,2.09-6.29,5.07-9,8.05A1.6,1.6,0,0,0,58,.37a1.54,1.54,0,0,0,1.45,1A38.81,38.81,0,0,0,71.78-2.09a1.6,1.6,0,0,0,.73-1.79A1.62,1.62,0,0,0,71-5a30.6,30.6,0,0,1-9.33-1.68,1.6,1.6,0,0,0-1.95,1.1,1.62,1.62,0,0,0,1.11,2A32.91,32.91,0,0,0,71-1.88l-.8-2.95a34.22,34.22,0,0,1-10.71,3L60.59.88C63.13-1.91,65.71-4.73,69-6.67L66.63-8.46a18.14,18.14,0,0,0,.13,10.4L69.4.4,61-7a1.63,1.63,0,0,0-2.24,0,1.61,1.61,0,0,0,0,2.24Z"/>
      </g>
    </pattern>
  </defs>
  <g class="cls-3">
    <rect class="cls-4" y="0.45" width="3888" height="1079.11"/>
    <rect class="cls-5" x="1151.12" y="259.95" width="731.5" height="477.29"/>
    <rect class="cls-5" x="1164.09" y="274" width="703.41" height="449.2"/>
    <path class="cls-6" d="M1867.5,506.3h-344V723.19h-15.41V506.3h-344V490.89h344V274h15.41V490.89h344Z"/>
    <path class="cls-7" d="M1662.07,810.05v14c-55.91-.23-100.21-3.28-100.21-7a.64.64,0,0,1,.12-.35c.54-.73,2.73-1.42,6.32-2.08,1.11-.19,2.35-.4,3.71-.59,13.68-1.92,40-3.35,71.78-3.83.8,0,1.58,0,2.38,0l7.3-.08,7.46-.05Z"/>
    <g>
      <line class="cls-8" x1="1662.07" y1="810.05" x2="1662.07" y2="810.04"/>
      <path class="cls-7" d="M1672.41,810V940.71h-10.34V810.05h10.34Z"/>
    </g>
    <line class="cls-8" x1="1561.98" y1="816.71" x2="1561.86" y2="817.06"/>
    <path class="cls-5" d="M1772.62,816.71c-2.67-3.58-45.68-6.46-99.4-6.67h-12.29l-7.46.05-7.3.08c-.8,0-1.58,0-2.38,0-31.79.49-58.1,1.92-71.78,3.83-1.36.2-2.6.4-3.71.59-3.59.66-5.78,1.35-6.32,2.08l49.42-135.94c0,3.88,25,7,55.89,7s55.91-3.15,55.91-7Z"/>
    <line class="cls-8" x1="1771.09" y1="816.71" x2="1771.1" y2="816.74"/>
    <line class="cls-8" x1="1722.04" y1="680.77" x2="1722.04" y2="680.76"/>
    <path class="cls-7" d="M1723.21,680.76h0c0,3.88-25.11,7-56.09,7s-56.09-3.15-56.09-7,25.11-7,56.09-7S1723.15,676.88,1723.21,680.76Z"/>
    <path class="cls-7" d="M1731.87,953.36c0,.17,0,.34,0,.49H1602.62a3.85,3.85,0,0,1,0-.49,12.67,12.67,0,0,1,12.65-12.65h104A12.68,12.68,0,0,1,1731.87,953.36Z"/>
    <path class="cls-7" d="M1672.41,810.06v14c55.9-.23,100.21-3.27,100.21-7a.56.56,0,0,0-.13-.35c-2.6-3.57-45.07-6.45-98.23-6.66C1673.64,810.06,1673,810,1672.41,810.06Z"/>
    <rect class="cls-7" x="1516.87" y="967.68" width="521.68" height="234.76"/>
    <rect class="cls-5" x="1550.45" y="1003.56" width="455.25" height="79.12" rx="3.49"/>
    <circle class="cls-6" cx="1778.08" cy="1043.12" r="8"/>
    <g>
      <rect class="cls-9" x="1498.2" y="955.35" width="559.04" height="10.85"/>
      <path d="M2055.73,956.85v7.85h-556v-7.85h556m3-3h-562V967.7h562V953.85Z"/>
    </g>
    <g>
      <path class="cls-7" d="M597.11,35.21c-12.21,2.29-9.66,5.4-3.73,14.49,13.42,19.72,20.46,41.5,29.32,90.71,8.32,43.13,20.87,86.43,53.93,107.69,33.79-30.24,41.39-51,53.76-114.73C738.76,89,745,70.16,758.22,49.62c5.06-7.79,5.72-10.11,3.65-12.18-3.48-3.48-31.15-4-40.18-.74C696.58,48.26,699.47,51.74,696,92c.55,31-11.26,94.8-30.07,60.22C641,105.76,684.29,24.76,597.11,35.21ZM640,104.71c1.74,1.49,4.8,7.37,6.13,11.68,9.27,30.48,12.67,37.85,21.2,46.8,15,19.84,29.32-18.15,34.46-34.79,4.06-14.81,14.24-40.11,20.71-16.16C726.16,135.88,710,197,694.44,218.11c-3.73,5.55-14.5,16.48-16.9,17.23C649,239.63,608.32,89.24,640,104.71Z"/>
      <path class="cls-7" d="M523.3,40.92c-80.58,13.92-84.66,155.27-28.41,195.25,33.69,24.64,82.74,9.38,100.89-27.92,6.05-11.35,11.27-29,13.17-44.65,1-7.62,1.24-18.22.42-18.22-6.42,6-19.86,19.32-28.09,24.52,3.73,59.37-58.59,97.48-92.52,37.19-5.65-40.23,62.82-60.47,81.26-82.67,15.34-16.28,26.07-33.78,17.89-52.43C576.91,48.74,547.35,37.14,523.3,40.92Zm18.31,37.69c8.85,1.08,26,7.89,30.4,12.34,1.24,1.74,0,10.36-2.16,15-10.47,24.7-76.93,55.83-78.19,65.69a77.23,77.23,0,0,0-10.94,19.46c-1.66,4.39-3.23,2.82-6.3-6.37C454.33,131.39,478,68.54,541.61,78.61Z"/>
      <path class="cls-7" d="M808.84,41.09c-39.7,10-57.18,41.61-53.52,86,1.33,53.45,2.38,56.91-14.74,87.56-1.41,2.07-2.15,3.89-1.82,4.72.66,1.82,14.91,13.17,21,16.9,34.86,20.21,79.38,14.1,104.87-18.89,8.88-10.51,6.51-6.48,8.7,6.38,4,37.86,1.62,7.21,59.64,18.48-26.22-29-39.1-62.45-41.5-108.85C889.94,84.11,859,33.13,808.84,41.09Zm21.37,13.42c28.49,5.78,66.49,80.29,21,69.33-19.8-6.87-34-27.5-36.37-52.6-.58-5.39.58-16.9,1.83-18.89C817.45,51.11,824.58,52.27,830.21,54.51Zm-23,2c-2.29,30.48,3,44.39,27.26,70.66,51.24,45,1.74,124.37-53.1,80.36C750.69,173.43,771.49,80.79,807.26,56.49Z"/>
      <path class="cls-7" d="M675.72,279.82c-1.08.58-1.24,4.31-1.24,22.78,0,16.16.24,22.45,1,23.2,1.32,1.32,48.87,1.4,51.28.16,1.16-.66,1.57-1.74,1.57-4.55,0-2-.5-3.9-1-4.31s-8-.83-16.41-1.08l-15.32-.41-.25-17.4c-.08-10.44-.5-17.64-1.08-18.22C693.28,279,677.46,278.83,675.72,279.82Z"/>
      <path class="cls-7" d="M739.42,279.9c-1.49,1.16-1.57,2.41-1.41,23,.17,19.72.33,21.95,1.58,22.86,2,1.41,17,1.49,18.38.09s1.41-44-.08-45.23C756.07,279.08,741.32,278.58,739.42,279.9Z"/>
      <path class="cls-7" d="M828.3,279.49c-2,.66-2.32,2.24-1.82,9.78.66,9.6,0,14.33-2.07,14.33-.75,0-8.45-5.22-17-11.6s-16.32-11.85-17.31-12.1a43.56,43.56,0,0,0-8-.16c-5.71.25-6.21.41-6.71,2.32-1.07,3.81-.82,42.66.25,43.74,1.33,1.32,17.4,1.32,18.72,0,.67-.67,1-4.64,1-12.35,0-6.87.33-11.59.83-11.92.91-.58,9.44,4.8,13.25,8.28,3.48,3.15,20.79,15.41,23,16.23s11,1,13,.25c1.16-.41,1.33-3.23,1.33-23.11,0-14.91-.34-22.86-.83-23.19C845,279.41,830,279,828.3,279.49Z"/>
      <path class="cls-7" d="M866.24,279.33a4,4,0,0,0-2.23,1.4c-.34.5-.67,10.69-.67,22.53,0,17.81.25,21.87,1.16,22.62s8.2.91,27.84.74c22.53-.24,26.67-.41,27.33-1.49,1.16-1.82,1-7.45-.16-7.87-.58-.24-8.7-.66-18.06-1.07l-17-.58-.25-3.65c-.17-2.32.08-3.89.83-4.3.58-.42,7.45-.75,15.16-.75s14.49-.33,15.07-.66c1.33-.83,2.16-4.64,1.49-6.71-.49-1.66-1.07-1.74-15.65-1.74-16.4,0-17.07-.17-17.07-4.56s.58-4.55,18.23-4.55c11.51,0,16.48-.25,17.23-1,1.07-1.08,1.32-5.55.33-7C919.26,279.82,869.56,278.5,866.24,279.33Z"/>
    </g>
    <rect class="cls-9" x="176.44" y="657.63" width="868.46" height="449.91" rx="12"/>
    <path class="cls-8" d="M1041,737v324.7a7,7,0,0,1-7,7H183.42a7,7,0,0,1-7-7V668.42a7,7,0,0,1,7-7H943.54"/>
    <polyline class="cls-8" points="1041.33 710.6 1041.33 709.64 1041.33 709.17"/>
    <line class="cls-8" x1="986.03" y1="661.24" x2="985.82" y2="661.24"/>
    <g>
      <g>
        <g>
          <circle class="cls-7" cx="289.07" cy="750.2" r="7.34"/>
          <g>
            <path class="cls-9" d="M269.43,739.29a7.93,7.93,0,0,0,10.11-8.43"/>
            <path d="M269,740.74a9.67,9.67,0,0,0,8.77-1.91,9.46,9.46,0,0,0,3.24-8,1.5,1.5,0,0,0-3,0,8.27,8.27,0,0,1,0,1.66,9.67,9.67,0,0,1-.43,1.6,4.92,4.92,0,0,1-.31.62,5.51,5.51,0,0,1-.45.73s-.2.28-.08.13l-.3.36a6.86,6.86,0,0,1-.67.65,2.71,2.71,0,0,1-.51.38,8.31,8.31,0,0,1-.76.44s-.43.2-.21.11l-.45.17a7.21,7.21,0,0,1-.91.25,6.75,6.75,0,0,1-3.12-.11,1.5,1.5,0,1,0-.8,2.89Z"/>
          </g>
          <g>
            <path class="cls-9" d="M308.61,739.29a7.92,7.92,0,0,1-10.11-8.43"/>
            <path d="M308.21,737.85c-.3.08-.61.16-.92.21.24,0-.21,0-.23,0l-.4,0a8.43,8.43,0,0,1-.87,0s-.48-.06-.23,0a3.89,3.89,0,0,1-.47-.09,7.21,7.21,0,0,1-.91-.25l-.37-.14c-.1,0-.1,0,0,0l-.21-.11a7,7,0,0,1-.76-.42,3.12,3.12,0,0,1-.58-.43,6.82,6.82,0,0,1-.61-.59,3.91,3.91,0,0,1-.4-.49,8.78,8.78,0,0,1-.49-.79c-.08-.13-.14-.27-.21-.41s0,.08-.1-.21a8.74,8.74,0,0,1-.44-1.65c0,.26,0-.21,0-.22s0-.31,0-.46a7.23,7.23,0,0,1,0-.93,1.5,1.5,0,0,0-3,0,9.48,9.48,0,0,0,3.24,8,9.67,9.67,0,0,0,8.77,1.91,1.5,1.5,0,1,0-.8-2.89Z"/>
          </g>
          <g>
            <path class="cls-9" d="M269.48,762.9a7.93,7.93,0,0,1,10.12,8.43"/>
            <path d="M269.88,764.34a9,9,0,0,1,.93-.21c-.25,0,.2,0,.22,0l.4,0a8.43,8.43,0,0,1,.87,0s.48.06.23,0a3.89,3.89,0,0,1,.47.09,7.21,7.21,0,0,1,.91.25l.37.14c.1,0,.1,0,0,0l.21.11a7,7,0,0,1,.76.42,3.12,3.12,0,0,1,.58.43,6.92,6.92,0,0,1,.61.6,4,4,0,0,1,.4.48c.17.26.34.51.49.79.08.13.14.27.21.41s0-.08.1.21a8.74,8.74,0,0,1,.44,1.65c0-.26,0,.21,0,.22s0,.31,0,.46c0,.31,0,.62,0,.93a1.5,1.5,0,0,0,1.5,1.5,1.54,1.54,0,0,0,1.5-1.5,9.51,9.51,0,0,0-3.25-8,9.67,9.67,0,0,0-8.77-1.91,1.5,1.5,0,1,0,.8,2.89Z"/>
          </g>
          <g>
            <path class="cls-9" d="M308.66,762.9a7.93,7.93,0,0,0-10.11,8.43"/>
            <path d="M309.06,761.45a9.67,9.67,0,0,0-8.76,1.91,9.46,9.46,0,0,0-3.25,8,1.5,1.5,0,0,0,3,0,8.27,8.27,0,0,1,0-1.66,9.67,9.67,0,0,1,.43-1.6,4.92,4.92,0,0,1,.31-.62,6.81,6.81,0,0,1,.45-.73l.09-.13a3.37,3.37,0,0,1,.3-.36,5.79,5.79,0,0,1,.66-.65,2.71,2.71,0,0,1,.51-.38,8.31,8.31,0,0,1,.76-.44s.43-.2.21-.11l.45-.17a7.21,7.21,0,0,1,.91-.25,6.75,6.75,0,0,1,3.12.11,1.5,1.5,0,1,0,.8-2.89Z"/>
          </g>
        </g>
        <g>
          <circle class="cls-7" cx="449.07" cy="749.31" r="7.34"/>
          <g>
            <path class="cls-9" d="M429.42,738.4A7.93,7.93,0,0,0,439.54,730"/>
            <path d="M429,739.85a9.69,9.69,0,0,0,8.77-1.91,9.52,9.52,0,0,0,3.25-8,1.54,1.54,0,0,0-1.5-1.5A1.51,1.51,0,0,0,438,730a9,9,0,0,1,0,1.65,8.87,8.87,0,0,1-.44,1.6,6.07,6.07,0,0,1-.3.63c-.14.25-.29.49-.45.73,0,0-.21.28-.09.13-.09.12-.2.24-.3.36a8.08,8.08,0,0,1-.66.65,2.8,2.8,0,0,1-.52.38,7,7,0,0,1-.75.44s-.43.2-.22.11l-.44.17a7.36,7.36,0,0,1-.92.25,6.75,6.75,0,0,1-3.12-.11,1.5,1.5,0,0,0-.8,2.89Z"/>
          </g>
          <g>
            <path class="cls-9" d="M468.61,738.4A7.93,7.93,0,0,1,458.49,730"/>
            <path d="M468.21,737c-.31.08-.62.15-.93.2.25,0-.2,0-.23,0l-.39,0a6.28,6.28,0,0,1-.87,0s-.48-.06-.24,0a3.73,3.73,0,0,1-.46-.09,7.36,7.36,0,0,1-.92-.25l-.37-.14h0l-.22-.11c-.26-.13-.51-.27-.76-.42a4,4,0,0,1-.58-.43c-.21-.19-.42-.39-.61-.6a4,4,0,0,1-.4-.48c-.17-.26-.34-.51-.49-.79l-.21-.41c-.13-.26,0,.08-.09-.22a8.48,8.48,0,0,1-.45-1.64c.05.26,0-.21,0-.22s0-.31,0-.46a7.23,7.23,0,0,1,0-.93,1.5,1.5,0,0,0-1.5-1.5A1.54,1.54,0,0,0,457,730a9.51,9.51,0,0,0,3.25,8,9.67,9.67,0,0,0,8.76,1.91,1.53,1.53,0,0,0,1.05-1.85,1.51,1.51,0,0,0-1.84-1Z"/>
          </g>
          <g>
            <path class="cls-9" d="M429.47,762a7.94,7.94,0,0,1,10.12,8.44"/>
            <path d="M429.87,763.45c.31-.08.62-.16.93-.21-.25,0,.2,0,.23,0l.39,0a8.55,8.55,0,0,1,.88,0l.23,0,.46.08c.31.07.62.16.92.26l.37.14c.1,0,.1,0,0,0l.21.1a8.2,8.2,0,0,1,.76.43,4,4,0,0,1,.58.43,6.77,6.77,0,0,1,.61.59,4,4,0,0,1,.4.48c.17.26.34.52.49.79l.21.42c.13.26,0-.08.09.21a8.57,8.57,0,0,1,.45,1.65c0-.26,0,.21,0,.22s0,.3,0,.46a7.23,7.23,0,0,1,0,.93,1.5,1.5,0,0,0,1.5,1.5,1.54,1.54,0,0,0,1.5-1.5,9.48,9.48,0,0,0-3.25-8,9.64,9.64,0,0,0-8.76-1.91,1.5,1.5,0,0,0,.79,2.89Z"/>
          </g>
          <g>
            <path class="cls-9" d="M468.66,762a7.94,7.94,0,0,0-10.12,8.44"/>
            <path d="M469.06,760.56a9.63,9.63,0,0,0-8.77,1.91,9.5,9.5,0,0,0-3.25,8,1.54,1.54,0,0,0,1.5,1.5,1.51,1.51,0,0,0,1.5-1.5,9.08,9.08,0,0,1,0-1.66,8.87,8.87,0,0,1,.44-1.6q.08-.2.3-.63t.45-.72c0-.05.21-.29.09-.13.09-.13.2-.24.3-.36a8.08,8.08,0,0,1,.66-.65,3.91,3.91,0,0,1,.52-.39,6.93,6.93,0,0,1,.75-.43l.22-.11a4,4,0,0,1,.44-.17c.3-.1.61-.19.92-.26a6.76,6.76,0,0,1,3.12.12,1.5,1.5,0,0,0,.8-2.89Z"/>
          </g>
        </g>
        <g>
          <circle class="cls-7" cx="609.06" cy="748.87" r="7.34"/>
          <g>
            <path class="cls-9" d="M589.42,738a7.94,7.94,0,0,0,10.11-8.44"/>
            <path d="M589,739.4a9.64,9.64,0,0,0,8.76-1.9,9.47,9.47,0,0,0,3.25-8,1.5,1.5,0,0,0-3,0,8.27,8.27,0,0,1,0,1.66,9.67,9.67,0,0,1-.43,1.6,5.62,5.62,0,0,1-.31.63,5.41,5.41,0,0,1-.45.72s-.2.29-.08.14c-.1.12-.2.24-.31.35a5.79,5.79,0,0,1-.66.65,3.23,3.23,0,0,1-.51.39,8.2,8.2,0,0,1-.76.43s-.43.21-.21.11a4.13,4.13,0,0,1-.45.17,9.46,9.46,0,0,1-.91.26,6.75,6.75,0,0,1-3.12-.12,1.5,1.5,0,1,0-.8,2.89Z"/>
          </g>
          <g>
            <path class="cls-9" d="M628.6,738a7.94,7.94,0,0,1-10.12-8.44"/>
            <path d="M628.2,736.51a7.21,7.21,0,0,1-.92.21c.24,0-.21,0-.23,0l-.4,0a8.42,8.42,0,0,1-.87,0l-.23,0-.47-.08a9.46,9.46,0,0,1-.91-.26l-.37-.14c-.1,0-.1,0,0,0l-.21-.1a7.07,7.07,0,0,1-.76-.43,2.73,2.73,0,0,1-.58-.43,5.67,5.67,0,0,1-.61-.59,4,4,0,0,1-.4-.48c-.17-.26-.34-.52-.49-.79s-.14-.28-.21-.42,0,.08-.1-.21a8.55,8.55,0,0,1-.44-1.65c0,.26,0-.21,0-.21,0-.16,0-.31,0-.47,0-.31,0-.62,0-.93a1.5,1.5,0,0,0-1.5-1.5,1.54,1.54,0,0,0-1.5,1.5,9.54,9.54,0,0,0,3.25,8,9.69,9.69,0,0,0,8.77,1.9,1.5,1.5,0,1,0-.8-2.89Z"/>
          </g>
          <g>
            <path class="cls-9" d="M589.47,761.56A7.93,7.93,0,0,1,599.59,770"/>
            <path d="M589.87,763a7.21,7.21,0,0,1,.92-.21c-.24,0,.21,0,.23,0l.4,0a8.42,8.42,0,0,1,.87,0s.48.06.23,0a3.89,3.89,0,0,1,.47.09,9.41,9.41,0,0,1,.91.25l.37.14c.1,0,.1,0,0,0l.21.1c.26.13.52.27.76.42a3.12,3.12,0,0,1,.58.43,6.92,6.92,0,0,1,.61.6,4,4,0,0,1,.4.48c.17.26.34.51.49.79s.14.27.21.41,0-.08.1.22a8.45,8.45,0,0,1,.44,1.64c0-.26,0,.21,0,.22s0,.31,0,.46c0,.32,0,.62,0,.93a1.5,1.5,0,0,0,1.5,1.5,1.54,1.54,0,0,0,1.5-1.5,9.51,9.51,0,0,0-3.25-8,9.7,9.7,0,0,0-8.77-1.91,1.5,1.5,0,0,0,.8,2.9Z"/>
          </g>
          <g>
            <path class="cls-9" d="M628.65,761.56A7.93,7.93,0,0,0,618.54,770"/>
            <path d="M629.05,760.11a9.67,9.67,0,0,0-8.76,1.91,9.47,9.47,0,0,0-3.25,8,1.53,1.53,0,0,0,1.5,1.5A1.51,1.51,0,0,0,620,770a8.17,8.17,0,0,1,0-1.65,9.67,9.67,0,0,1,.43-1.6,4.87,4.87,0,0,1,.31-.63,6.24,6.24,0,0,1,.45-.73s.2-.28.08-.13l.31-.36a6.77,6.77,0,0,1,.66-.65,2.71,2.71,0,0,1,.51-.38,8.31,8.31,0,0,1,.76-.44s.43-.2.21-.11l.45-.17a9.41,9.41,0,0,1,.91-.25,6.62,6.62,0,0,1,3.12.12,1.5,1.5,0,1,0,.8-2.9Z"/>
          </g>
        </g>
        <g>
          <circle class="cls-7" cx="769.06" cy="747.97" r="7.34"/>
          <g>
            <path class="cls-9" d="M749.41,737.06a7.93,7.93,0,0,0,10.12-8.43"/>
            <path d="M749,738.51a9.66,9.66,0,0,0,8.77-1.91,9.5,9.5,0,0,0,3.25-8,1.54,1.54,0,0,0-1.5-1.5,1.51,1.51,0,0,0-1.5,1.5,9.08,9.08,0,0,1,0,1.66,9.79,9.79,0,0,1-.44,1.6,6.17,6.17,0,0,1-.3.62c-.14.25-.29.5-.45.73,0,0-.21.28-.09.13-.09.13-.2.24-.3.36a8.08,8.08,0,0,1-.66.65,3.18,3.18,0,0,1-.52.38,7,7,0,0,1-.75.44s-.43.2-.22.11l-.44.17a7.36,7.36,0,0,1-.92.25,6.75,6.75,0,0,1-3.12-.11,1.5,1.5,0,0,0-.8,2.89Z"/>
          </g>
          <g>
            <path class="cls-9" d="M788.6,737.06a7.93,7.93,0,0,1-10.12-8.43"/>
            <path d="M788.2,735.62c-.31.08-.62.16-.93.21.25,0-.21,0-.23,0l-.4,0a8.43,8.43,0,0,1-.87,0s-.47-.06-.23,0a3.73,3.73,0,0,1-.46-.09,7.36,7.36,0,0,1-.92-.25l-.37-.14c-.1,0-.1,0,0,0l-.21-.11a8.09,8.09,0,0,1-.76-.42,4,4,0,0,1-.58-.43c-.21-.19-.42-.38-.61-.59a3.91,3.91,0,0,1-.4-.49,8.78,8.78,0,0,1-.49-.79l-.21-.41c-.13-.26,0,.08-.09-.21a8.77,8.77,0,0,1-.45-1.65c0,.26,0-.21,0-.22s0-.31,0-.46a7.23,7.23,0,0,1,0-.93,1.5,1.5,0,0,0-1.5-1.5,1.54,1.54,0,0,0-1.5,1.5,9.48,9.48,0,0,0,3.25,8,9.64,9.64,0,0,0,8.76,1.91,1.5,1.5,0,1,0-.79-2.89Z"/>
          </g>
          <g>
            <path class="cls-9" d="M749.46,760.67a7.93,7.93,0,0,1,10.12,8.43"/>
            <path d="M749.86,762.11c.31-.08.62-.15.93-.2l.23,0,.39,0a8.33,8.33,0,0,1,.87,0s.48.06.24,0a3.73,3.73,0,0,1,.46.09,7.36,7.36,0,0,1,.92.25l.37.14h0l.22.11a8.09,8.09,0,0,1,.76.42,4,4,0,0,1,.58.43c.21.19.42.39.61.6a4,4,0,0,1,.4.48c.17.26.34.51.49.79l.21.41c.13.26,0-.08.09.21a8.77,8.77,0,0,1,.45,1.65c-.05-.26,0,.21,0,.22s0,.31,0,.46a7.23,7.23,0,0,1,0,.93,1.5,1.5,0,0,0,1.5,1.5,1.54,1.54,0,0,0,1.5-1.5,9.51,9.51,0,0,0-3.25-8,9.64,9.64,0,0,0-8.76-1.91,1.53,1.53,0,0,0-1.05,1.85,1.51,1.51,0,0,0,1.84,1Z"/>
          </g>
          <g>
            <path class="cls-9" d="M788.65,760.67a7.93,7.93,0,0,0-10.12,8.43"/>
            <path d="M789.05,759.22a9.69,9.69,0,0,0-8.77,1.91,9.51,9.51,0,0,0-3.25,8,1.54,1.54,0,0,0,1.5,1.5,1.51,1.51,0,0,0,1.5-1.5,9.08,9.08,0,0,1,0-1.66,8.87,8.87,0,0,1,.44-1.6,6.17,6.17,0,0,1,.3-.62c.14-.25.29-.5.45-.73,0,0,.21-.28.09-.13.09-.13.2-.24.3-.36a8.08,8.08,0,0,1,.66-.65,2.8,2.8,0,0,1,.52-.38,7,7,0,0,1,.75-.44s.43-.2.22-.11l.44-.17a7.36,7.36,0,0,1,.92-.25,6.75,6.75,0,0,1,3.12.11,1.5,1.5,0,0,0,.8-2.89Z"/>
          </g>
        </g>
        <g>
          <circle class="cls-7" cx="929.05" cy="747.08" r="7.34"/>
          <g>
            <path class="cls-9" d="M909.41,736.17a7.93,7.93,0,0,0,10.11-8.43"/>
            <path d="M909,737.62a9.67,9.67,0,0,0,8.76-1.91,9.47,9.47,0,0,0,3.25-8,1.5,1.5,0,0,0-3,0,8.17,8.17,0,0,1,0,1.65,9.67,9.67,0,0,1-.43,1.6,4.87,4.87,0,0,1-.31.63,8,8,0,0,1-.45.73l-.09.13q-.13.18-.3.36a5.79,5.79,0,0,1-.66.65,2.71,2.71,0,0,1-.51.38,8.31,8.31,0,0,1-.76.44s-.43.2-.21.11l-.45.17a7.21,7.21,0,0,1-.91.25,6.75,6.75,0,0,1-3.12-.11,1.5,1.5,0,1,0-.8,2.89Z"/>
          </g>
          <g>
            <path class="cls-9" d="M938.48,727.74a7.88,7.88,0,0,0,6.31,8.57"/>
            <path d="M937,727.74a9.4,9.4,0,0,0,7.41,10,1.5,1.5,0,0,0,.8-2.89,8.23,8.23,0,0,1-1.39-.41c.25.1-.17-.08-.18-.09l-.26-.13c-.21-.11-.42-.23-.62-.36l-.35-.25,0,0c-.17-.15-.33-.29-.49-.45s-.3-.31-.44-.48-.28-.36-.1-.11l-.19-.27a7.94,7.94,0,0,1-.64-1.14c0-.06-.13-.34,0-.06l-.12-.31c-.07-.21-.14-.42-.19-.63a4.56,4.56,0,0,1-.14-.64c0-.14,0-.27,0-.06l0-.32a7.07,7.07,0,0,1,0-1.38,1.5,1.5,0,0,0-1.5-1.5,1.54,1.54,0,0,0-1.5,1.5Z"/>
          </g>
          <g>
            <path class="cls-9" d="M909.46,759.77a7.93,7.93,0,0,1,10.11,8.44"/>
            <path d="M909.86,761.22c.3-.08.61-.16.92-.21-.24,0,.21,0,.23,0l.4,0a8.42,8.42,0,0,1,.87,0l.23,0,.47.08a9.46,9.46,0,0,1,.91.26l.37.14c.1,0,.1,0,0,0l.21.1a7.07,7.07,0,0,1,.76.43,3.12,3.12,0,0,1,.58.43,5.67,5.67,0,0,1,.61.59,4,4,0,0,1,.4.48c.17.26.34.52.49.79s.14.28.21.42,0-.08.1.21a8.55,8.55,0,0,1,.44,1.65c0-.26,0,.21,0,.22s0,.31,0,.46a7.23,7.23,0,0,1,0,.93,1.5,1.5,0,0,0,3,0,9.48,9.48,0,0,0-3.24-8,9.67,9.67,0,0,0-8.77-1.91,1.5,1.5,0,1,0,.8,2.89Z"/>
          </g>
          <g>
            <path class="cls-9" d="M938.53,768.21a8.07,8.07,0,0,1,2.81-6.91,7.92,7.92,0,0,1,4-1.74"/>
            <path d="M940,768.21a7.29,7.29,0,0,1,0-1.4l0-.33c0,.21,0,.06,0-.07s.1-.48.17-.71.13-.43.2-.64c0,0,.15-.37.08-.19s.07-.16.09-.19a7.42,7.42,0,0,1,.72-1.21c0-.05.23-.27,0-.07l.21-.25c.15-.17.31-.33.47-.48l.25-.23s.34-.27.14-.12c.2-.15.4-.28.61-.41s.42-.24.64-.34c0,0,.36-.16.22-.11s.2-.07.23-.08a8.36,8.36,0,0,1,1.57-.38,1.5,1.5,0,0,0,1-1.84,1.55,1.55,0,0,0-1.84-1,9.46,9.46,0,0,0-7.88,10.1,1.5,1.5,0,0,0,3,0Z"/>
          </g>
        </g>
      </g>
      <g>
        <g>
          <circle class="cls-7" cx="369.07" cy="834.95" r="7.34"/>
          <g>
            <path class="cls-9" d="M349.43,824a7.93,7.93,0,0,0,10.11-8.44"/>
            <path d="M349,825.49a9.68,9.68,0,0,0,8.76-1.91,9.5,9.5,0,0,0,3.25-8,1.54,1.54,0,0,0-1.5-1.5,1.52,1.52,0,0,0-1.5,1.5,9.07,9.07,0,0,1,0,1.66,8.87,8.87,0,0,1-.44,1.6,3.93,3.93,0,0,1-.3.63c-.14.25-.29.49-.45.73l-.09.13a3.27,3.27,0,0,1-.3.35q-.31.34-.66.66a2.5,2.5,0,0,1-.52.38c-.24.16-.49.3-.75.44,0,0-.43.2-.22.11l-.44.16a7.4,7.4,0,0,1-.92.26,6.63,6.63,0,0,1-3.12-.12,1.5,1.5,0,0,0-.79,2.9Z"/>
          </g>
          <g>
            <path class="cls-9" d="M388.61,824a7.93,7.93,0,0,1-10.12-8.44"/>
            <path d="M388.21,822.59a7.36,7.36,0,0,1-.93.21c.25,0-.2,0-.23,0l-.39,0a8.42,8.42,0,0,1-.87,0s-.48-.06-.23,0l-.47-.09a7.4,7.4,0,0,1-.92-.26l-.37-.13c-.09,0-.09,0,0,0l-.22-.1a6.93,6.93,0,0,1-.75-.43,3.59,3.59,0,0,1-.59-.42c-.21-.19-.41-.39-.61-.6a3.69,3.69,0,0,1-.39-.48c-.18-.26-.35-.52-.5-.79l-.21-.42c-.13-.26,0,.09-.09-.21a8.45,8.45,0,0,1-.44-1.64c0,.26,0-.22,0-.22,0-.16,0-.31,0-.47s0-.62,0-.93a1.51,1.51,0,0,0-1.5-1.5,1.54,1.54,0,0,0-1.5,1.5,9.52,9.52,0,0,0,3.25,8,9.7,9.7,0,0,0,8.77,1.91,1.5,1.5,0,0,0-.8-2.9Z"/>
          </g>
          <g>
            <path class="cls-9" d="M349.48,847.64a7.93,7.93,0,0,1,10.11,8.44"/>
            <path d="M349.88,849.09a7.21,7.21,0,0,1,.92-.21c-.24,0,.21,0,.23,0l.4,0a8.42,8.42,0,0,1,.87,0s.48.06.23,0l.47.09a7.25,7.25,0,0,1,.91.26l.37.13c.1,0,.1,0,0,0l.21.1a7.07,7.07,0,0,1,.76.43,3.11,3.11,0,0,1,.58.42,6.92,6.92,0,0,1,.61.6,4,4,0,0,1,.4.48c.17.26.34.52.49.79s.14.28.21.42,0-.09.1.21a9.11,9.11,0,0,1,.44,1.65c0-.27,0,.21,0,.21,0,.16,0,.31,0,.47a7.23,7.23,0,0,1,0,.93,1.5,1.5,0,0,0,3,0,9.46,9.46,0,0,0-3.25-8,9.67,9.67,0,0,0-8.76-1.9,1.5,1.5,0,1,0,.8,2.89Z"/>
          </g>
          <g>
            <path class="cls-9" d="M388.66,847.64a7.93,7.93,0,0,0-10.12,8.44"/>
            <path d="M389.06,846.2a9.66,9.66,0,0,0-8.77,1.9,9.53,9.53,0,0,0-3.25,8,1.55,1.55,0,0,0,1.5,1.5,1.5,1.5,0,0,0,1.5-1.5,10.06,10.06,0,0,1,0-1.66,9.79,9.79,0,0,1,.44-1.6,5.62,5.62,0,0,1,.31-.63,6.59,6.59,0,0,1,.44-.72c0-.06.21-.29.09-.14l.3-.35a8.36,8.36,0,0,1,.67-.66,3.22,3.22,0,0,1,.51-.38,8,8,0,0,1,.75-.43s.44-.21.22-.12l.45-.16a7.25,7.25,0,0,1,.91-.26,6.62,6.62,0,0,1,3.12.12,1.5,1.5,0,1,0,.8-2.89Z"/>
          </g>
        </g>
        <g>
          <circle class="cls-7" cx="529.06" cy="834.06" r="7.34"/>
          <g>
            <path class="cls-9" d="M509.42,823.15a7.93,7.93,0,0,0,10.12-8.44"/>
            <path d="M509,824.59a9.66,9.66,0,0,0,8.77-1.9,9.53,9.53,0,0,0,3.25-8,1.55,1.55,0,0,0-1.5-1.5,1.5,1.5,0,0,0-1.5,1.5,9.07,9.07,0,0,1,0,1.66,9.79,9.79,0,0,1-.44,1.6,5.62,5.62,0,0,1-.31.63,6.59,6.59,0,0,1-.44.72s-.21.29-.09.14l-.3.35a6.86,6.86,0,0,1-.67.65,3.23,3.23,0,0,1-.51.39,6.93,6.93,0,0,1-.75.43s-.44.21-.22.12l-.45.16a7.25,7.25,0,0,1-.91.26,6.62,6.62,0,0,1-3.12-.12,1.5,1.5,0,1,0-.8,2.89Z"/>
          </g>
          <g>
            <path class="cls-9" d="M548.6,823.15a7.93,7.93,0,0,1-10.11-8.44"/>
            <path d="M548.2,821.7a7.21,7.21,0,0,1-.92.21c.24,0-.21,0-.23,0l-.4,0a8.42,8.42,0,0,1-.87,0s-.48-.06-.23,0l-.47-.09a7.77,7.77,0,0,1-.91-.26l-.37-.14c-.1,0-.1,0,0,0l-.21-.1a7.07,7.07,0,0,1-.76-.43,3,3,0,0,1-.58-.43,5.67,5.67,0,0,1-.61-.59,4,4,0,0,1-.4-.48c-.17-.26-.34-.52-.49-.79s-.14-.28-.21-.42,0,.09-.1-.21a9.11,9.11,0,0,1-.44-1.65c0,.27,0-.21,0-.21,0-.16,0-.31,0-.47a7.23,7.23,0,0,1,0-.93,1.5,1.5,0,0,0-3,0,9.49,9.49,0,0,0,3.25,8,9.67,9.67,0,0,0,8.76,1.9,1.5,1.5,0,1,0-.8-2.89Z"/>
          </g>
          <g>
            <path class="cls-9" d="M509.47,846.75a7.93,7.93,0,0,1,10.12,8.44"/>
            <path d="M509.87,848.2a7.36,7.36,0,0,1,.93-.21c-.25,0,.2,0,.23,0l.39,0a8.42,8.42,0,0,1,.87,0s.48.06.23,0l.47.09c.31.07.62.15.92.25l.37.14c.09,0,.09,0,0,0l.22.1a6.93,6.93,0,0,1,.75.43,3.08,3.08,0,0,1,.59.42c.21.19.41.39.61.6a3.69,3.69,0,0,1,.39.48c.18.26.35.52.5.79l.21.41c.13.26,0-.08.09.22a8.45,8.45,0,0,1,.44,1.64c0-.26,0,.21,0,.22,0,.16,0,.31,0,.47,0,.31,0,.62,0,.93a1.51,1.51,0,0,0,1.5,1.5,1.54,1.54,0,0,0,1.5-1.5,9.52,9.52,0,0,0-3.25-8,9.7,9.7,0,0,0-8.77-1.91,1.5,1.5,0,0,0,.8,2.9Z"/>
          </g>
          <g>
            <path class="cls-9" d="M548.65,846.75a7.93,7.93,0,0,0-10.11,8.44"/>
            <path d="M549.05,845.3a9.68,9.68,0,0,0-8.76,1.91,9.5,9.5,0,0,0-3.25,8,1.54,1.54,0,0,0,1.5,1.5,1.52,1.52,0,0,0,1.5-1.5,9.07,9.07,0,0,1,0-1.66,8.87,8.87,0,0,1,.44-1.6,3.93,3.93,0,0,1,.3-.63c.14-.25.29-.49.45-.73l.09-.13a3.27,3.27,0,0,1,.3-.35,8.22,8.22,0,0,1,.66-.66,2.5,2.5,0,0,1,.52-.38,7,7,0,0,1,.75-.44s.43-.2.22-.11l.44-.17c.3-.1.61-.18.92-.25a6.63,6.63,0,0,1,3.12.12,1.5,1.5,0,0,0,.79-2.9Z"/>
          </g>
        </g>
        <g>
          <circle class="cls-7" cx="689.06" cy="833.61" r="7.34"/>
          <g>
            <path class="cls-9" d="M669.42,822.7a7.93,7.93,0,0,0,10.11-8.43"/>
            <path d="M669,824.15a9.68,9.68,0,0,0,8.76-1.91,9.49,9.49,0,0,0,3.25-8,1.53,1.53,0,0,0-1.5-1.5,1.51,1.51,0,0,0-1.5,1.5,9,9,0,0,1,0,1.65,8.87,8.87,0,0,1-.44,1.6,4.49,4.49,0,0,1-.3.63c-.14.25-.29.49-.45.73l-.09.13q-.13.18-.3.36c-.21.23-.43.44-.66.65a2.5,2.5,0,0,1-.52.38,7,7,0,0,1-.75.44s-.43.2-.22.11l-.44.17c-.3.1-.61.18-.92.25a6.63,6.63,0,0,1-3.12-.12,1.5,1.5,0,0,0-.79,2.9Z"/>
          </g>
          <g>
            <path class="cls-9" d="M708.6,822.7a7.93,7.93,0,0,1-10.12-8.43"/>
            <path d="M708.2,821.25a7.36,7.36,0,0,1-.93.21c.25,0-.2,0-.23,0l-.39,0a8.42,8.42,0,0,1-.87,0s-.48-.06-.23,0a3.55,3.55,0,0,1-.47-.09c-.31-.07-.62-.15-.92-.25l-.37-.14c-.09,0-.09,0,0,0l-.22-.1q-.39-.2-.75-.42a3.6,3.6,0,0,1-.59-.43c-.21-.19-.41-.39-.61-.6a3.69,3.69,0,0,1-.39-.48,8.09,8.09,0,0,1-.5-.79l-.21-.41c-.13-.26,0,.08-.09-.22a8.45,8.45,0,0,1-.44-1.64c0,.26,0-.21,0-.22s0-.31,0-.46c0-.32,0-.62,0-.93a1.5,1.5,0,0,0-1.5-1.5,1.54,1.54,0,0,0-1.5,1.5,9.51,9.51,0,0,0,3.25,8,9.7,9.7,0,0,0,8.77,1.91,1.5,1.5,0,0,0-.8-2.9Z"/>
          </g>
          <g>
            <path class="cls-9" d="M669.47,846.3a7.94,7.94,0,0,1,10.11,8.44"/>
            <path d="M669.87,847.75a7.21,7.21,0,0,1,.92-.21c-.24,0,.21,0,.23,0l.4,0a8.42,8.42,0,0,1,.87,0l.23,0,.47.08c.3.07.61.16.91.26l.37.14c.1,0,.1,0,0,0l.21.1a7.07,7.07,0,0,1,.76.43,3,3,0,0,1,.58.43,5.67,5.67,0,0,1,.61.59,4,4,0,0,1,.4.48c.17.26.34.52.49.79l.21.42c.13.26,0-.08.1.21a9.33,9.33,0,0,1,.44,1.65c0-.26,0,.21,0,.21,0,.16,0,.31,0,.47a7.23,7.23,0,0,1,0,.93,1.5,1.5,0,0,0,3,0,9.49,9.49,0,0,0-3.25-8,9.67,9.67,0,0,0-8.76-1.9,1.5,1.5,0,1,0,.8,2.89Z"/>
          </g>
          <g>
            <path class="cls-9" d="M708.65,846.3a7.94,7.94,0,0,0-10.12,8.44"/>
            <path d="M709.05,844.86a9.66,9.66,0,0,0-8.77,1.9,9.53,9.53,0,0,0-3.25,8,1.54,1.54,0,0,0,1.5,1.5,1.5,1.5,0,0,0,1.5-1.5,9.08,9.08,0,0,1,0-1.66,9.79,9.79,0,0,1,.44-1.6,5.62,5.62,0,0,1,.31-.63,6.59,6.59,0,0,1,.44-.72s.21-.29.09-.14l.3-.35a6.86,6.86,0,0,1,.67-.65,3.23,3.23,0,0,1,.51-.39,6.93,6.93,0,0,1,.75-.43l.22-.11a4.13,4.13,0,0,1,.45-.17,9.46,9.46,0,0,1,.91-.26,6.75,6.75,0,0,1,3.12.12,1.5,1.5,0,1,0,.8-2.89Z"/>
          </g>
        </g>
        <g>
          <circle class="cls-7" cx="849.05" cy="832.72" r="7.34"/>
          <g>
            <path class="cls-9" d="M829.41,821.81a7.93,7.93,0,0,0,10.12-8.44"/>
            <path d="M829,823.26a9.69,9.69,0,0,0,8.77-1.91,9.53,9.53,0,0,0,3.25-8,1.55,1.55,0,0,0-1.5-1.5,1.5,1.5,0,0,0-1.5,1.5,10.06,10.06,0,0,1,0,1.66,9.79,9.79,0,0,1-.44,1.6,5.62,5.62,0,0,1-.31.63,7.85,7.85,0,0,1-.44.73s-.21.28-.09.13l-.3.35a8.36,8.36,0,0,1-.67.66,2.71,2.71,0,0,1-.51.38c-.24.16-.5.3-.75.44,0,0-.44.2-.22.11l-.45.16a7.25,7.25,0,0,1-.91.26,6.62,6.62,0,0,1-3.12-.12,1.5,1.5,0,0,0-.8,2.9Z"/>
          </g>
          <g>
            <path class="cls-9" d="M868.59,821.81a7.93,7.93,0,0,1-10.11-8.44"/>
            <path d="M868.19,820.36a7.21,7.21,0,0,1-.92.21c.24,0-.21,0-.23,0l-.4,0a8.42,8.42,0,0,1-.87,0s-.48-.06-.23,0l-.47-.09a7.25,7.25,0,0,1-.91-.26l-.37-.13c-.1,0-.1,0,0,0l-.21-.1a7.07,7.07,0,0,1-.76-.43,3.11,3.11,0,0,1-.58-.42,6.92,6.92,0,0,1-.61-.6,4,4,0,0,1-.4-.48c-.17-.26-.34-.52-.49-.79s-.14-.28-.21-.42,0,.09-.1-.21A9.23,9.23,0,0,1,860,815c0,.26,0-.22,0-.22,0-.16,0-.31,0-.47a7.23,7.23,0,0,1,0-.93,1.5,1.5,0,1,0-3,0,9.46,9.46,0,0,0,3.25,8,9.67,9.67,0,0,0,8.76,1.91,1.5,1.5,0,1,0-.8-2.9Z"/>
          </g>
          <g>
            <path class="cls-9" d="M829.46,845.41a7.93,7.93,0,0,1,10.12,8.44"/>
            <path d="M829.86,846.86a7.36,7.36,0,0,1,.93-.21c-.25,0,.2,0,.23,0l.39,0a8.42,8.42,0,0,1,.87,0s.48.06.23,0l.47.09a7.4,7.4,0,0,1,.92.26l.37.13c.09,0,.09,0,0,0l.22.1a6.93,6.93,0,0,1,.75.43,3.59,3.59,0,0,1,.59.42c.21.19.41.39.61.6a3.69,3.69,0,0,1,.39.48c.18.26.35.52.5.79l.21.42c.13.26,0-.09.09.21a8.36,8.36,0,0,1,.44,1.65c0-.27,0,.21,0,.21,0,.16,0,.31,0,.47,0,.31,0,.62,0,.93a1.51,1.51,0,0,0,1.5,1.5,1.54,1.54,0,0,0,1.5-1.5,9.53,9.53,0,0,0-3.25-8,9.69,9.69,0,0,0-8.77-1.9,1.5,1.5,0,0,0,.8,2.89Z"/>
          </g>
          <g>
            <path class="cls-9" d="M868.64,845.41a7.93,7.93,0,0,0-10.11,8.44"/>
            <path d="M869,844a9.64,9.64,0,0,0-8.76,1.9,9.5,9.5,0,0,0-3.25,8,1.54,1.54,0,0,0,1.5,1.5,1.52,1.52,0,0,0,1.5-1.5,9.07,9.07,0,0,1,0-1.66,8.87,8.87,0,0,1,.44-1.6,3.93,3.93,0,0,1,.3-.63q.21-.37.45-.72c0-.06.2-.29.09-.14a3.27,3.27,0,0,1,.3-.35q.32-.35.66-.66a2.92,2.92,0,0,1,.52-.38,6.93,6.93,0,0,1,.75-.43s.43-.21.22-.12l.44-.16a7.4,7.4,0,0,1,.92-.26,6.63,6.63,0,0,1,3.12.12A1.5,1.5,0,1,0,869,844Z"/>
          </g>
        </g>
      </g>
      <g>
        <g>
          <circle class="cls-7" cx="289.07" cy="908.35" r="7.34"/>
          <g>
            <path class="cls-9" d="M269.43,897.44A7.93,7.93,0,0,0,279.54,889"/>
            <path d="M269,898.89A9.67,9.67,0,0,0,277.8,897a9.48,9.48,0,0,0,3.24-8,1.5,1.5,0,0,0-3,0,8.27,8.27,0,0,1,0,1.66,9.67,9.67,0,0,1-.43,1.6,4.92,4.92,0,0,1-.31.62,5.51,5.51,0,0,1-.45.73s-.2.28-.08.13l-.3.36a6.86,6.86,0,0,1-.67.65,2.71,2.71,0,0,1-.51.38,8.31,8.31,0,0,1-.76.44s-.43.2-.21.11l-.45.17a7.21,7.21,0,0,1-.91.25,6.75,6.75,0,0,1-3.12-.11,1.5,1.5,0,1,0-.8,2.89Z"/>
          </g>
          <g>
            <path class="cls-9" d="M308.61,897.44A7.92,7.92,0,0,1,298.5,889"/>
            <path d="M308.21,896c-.3.08-.61.16-.92.21.24,0-.21,0-.23,0l-.4,0a8.43,8.43,0,0,1-.87,0s-.48-.06-.23,0a3.89,3.89,0,0,1-.47-.09,7.21,7.21,0,0,1-.91-.25l-.37-.14c-.1,0-.1,0,0,0l-.21-.11a7,7,0,0,1-.76-.42,3.12,3.12,0,0,1-.58-.43c-.22-.19-.42-.39-.61-.59a3.91,3.91,0,0,1-.4-.49c-.17-.26-.34-.51-.49-.79s-.14-.27-.21-.41,0,.08-.1-.21a8.74,8.74,0,0,1-.44-1.65c0,.26,0-.21,0-.22s0-.31,0-.46a7.23,7.23,0,0,1,0-.93,1.5,1.5,0,0,0-3,0,9.48,9.48,0,0,0,3.24,8,9.67,9.67,0,0,0,8.77,1.91,1.5,1.5,0,1,0-.8-2.89Z"/>
          </g>
          <g>
            <path class="cls-9" d="M269.48,921.05a7.93,7.93,0,0,1,10.12,8.43"/>
            <path d="M269.88,922.49a9,9,0,0,1,.93-.21c-.25,0,.2,0,.22,0l.4,0a8.43,8.43,0,0,1,.87,0s.48.06.23,0a3.89,3.89,0,0,1,.47.09,7.21,7.21,0,0,1,.91.25l.37.14c.1,0,.1,0,0,0l.21.11a7,7,0,0,1,.76.42,3.12,3.12,0,0,1,.58.43c.22.19.42.39.61.59a4.83,4.83,0,0,1,.4.49c.17.26.34.51.49.79s.14.27.21.41,0-.08.1.21a8.74,8.74,0,0,1,.44,1.65c0-.26,0,.21,0,.22s0,.31,0,.46c0,.31,0,.62,0,.93a1.5,1.5,0,0,0,1.5,1.5,1.54,1.54,0,0,0,1.5-1.5,9.51,9.51,0,0,0-3.25-8,9.67,9.67,0,0,0-8.77-1.91,1.5,1.5,0,1,0,.8,2.89Z"/>
          </g>
          <g>
            <path class="cls-9" d="M308.66,921.05a7.93,7.93,0,0,0-10.11,8.43"/>
            <path d="M309.06,919.6a9.67,9.67,0,0,0-8.76,1.91,9.46,9.46,0,0,0-3.25,8,1.5,1.5,0,0,0,3,0,8.27,8.27,0,0,1,0-1.66,9.67,9.67,0,0,1,.43-1.6,4.92,4.92,0,0,1,.31-.62,6.81,6.81,0,0,1,.45-.73l.09-.13a3.37,3.37,0,0,1,.3-.36,5.79,5.79,0,0,1,.66-.65,2.71,2.71,0,0,1,.51-.38,8.31,8.31,0,0,1,.76-.44s.43-.2.21-.11l.45-.17a7.21,7.21,0,0,1,.91-.25,6.75,6.75,0,0,1,3.12.11,1.5,1.5,0,1,0,.8-2.89Z"/>
          </g>
        </g>
        <g>
          <circle class="cls-7" cx="449.07" cy="907.46" r="7.34"/>
          <g>
            <path class="cls-9" d="M429.42,896.55a7.93,7.93,0,0,0,10.12-8.43"/>
            <path d="M429,898a9.69,9.69,0,0,0,8.77-1.91,9.52,9.52,0,0,0,3.25-8,1.54,1.54,0,0,0-1.5-1.5,1.51,1.51,0,0,0-1.5,1.5,9,9,0,0,1,0,1.65,8.87,8.87,0,0,1-.44,1.6,6.07,6.07,0,0,1-.3.63c-.14.25-.29.49-.45.73,0,0-.21.28-.09.13-.09.12-.2.24-.3.36a8.08,8.08,0,0,1-.66.65,2.8,2.8,0,0,1-.52.38,7,7,0,0,1-.75.44s-.43.2-.22.11l-.44.17a7.36,7.36,0,0,1-.92.25,6.75,6.75,0,0,1-3.12-.11A1.5,1.5,0,0,0,429,898Z"/>
          </g>
          <g>
            <path class="cls-9" d="M468.61,896.55a7.93,7.93,0,0,1-10.12-8.43"/>
            <path d="M468.21,895.11c-.31.08-.62.15-.93.2.25,0-.2,0-.23,0l-.39,0a6.28,6.28,0,0,1-.87,0s-.48-.06-.24,0a3.73,3.73,0,0,1-.46-.09,7.36,7.36,0,0,1-.92-.25l-.37-.14c-.1,0-.1,0,0,0l-.22-.1c-.26-.13-.51-.27-.76-.42a4,4,0,0,1-.58-.43c-.21-.19-.42-.39-.61-.6a4,4,0,0,1-.4-.48c-.17-.26-.34-.51-.49-.79l-.21-.41c-.13-.26,0,.08-.09-.22a8.48,8.48,0,0,1-.45-1.64c.05.26,0-.21,0-.22s0-.31,0-.46a7.23,7.23,0,0,1,0-.93,1.5,1.5,0,0,0-1.5-1.5,1.54,1.54,0,0,0-1.5,1.5,9.51,9.51,0,0,0,3.25,8A9.67,9.67,0,0,0,469,898a1.53,1.53,0,0,0,1.05-1.85,1.51,1.51,0,0,0-1.84-1Z"/>
          </g>
          <g>
            <path class="cls-9" d="M429.47,920.15a7.94,7.94,0,0,1,10.12,8.44"/>
            <path d="M429.87,921.6c.31-.08.62-.16.93-.21-.25,0,.2,0,.23,0l.39,0a8.55,8.55,0,0,1,.88,0l.23,0,.46.08c.31.07.62.16.92.26l.37.14c.1,0,.1,0,0,0l.21.1a8.2,8.2,0,0,1,.76.43,3.36,3.36,0,0,1,.58.43,6.77,6.77,0,0,1,.61.59,4,4,0,0,1,.4.48c.17.26.34.52.49.79l.21.42c.13.26,0-.08.09.21a8.57,8.57,0,0,1,.45,1.65c0-.26,0,.21,0,.22s0,.3,0,.46a7.23,7.23,0,0,1,0,.93,1.5,1.5,0,0,0,1.5,1.5,1.54,1.54,0,0,0,1.5-1.5,9.48,9.48,0,0,0-3.25-8,9.64,9.64,0,0,0-8.76-1.91,1.5,1.5,0,1,0,.79,2.89Z"/>
          </g>
          <g>
            <path class="cls-9" d="M468.66,920.15a7.94,7.94,0,0,0-10.12,8.44"/>
            <path d="M469.06,918.71a9.63,9.63,0,0,0-8.77,1.91,9.5,9.5,0,0,0-3.25,8,1.54,1.54,0,0,0,1.5,1.5,1.51,1.51,0,0,0,1.5-1.5,9.08,9.08,0,0,1,0-1.66,8.87,8.87,0,0,1,.44-1.6q.08-.2.3-.63t.45-.72c0-.05.21-.29.09-.13.09-.13.2-.24.3-.36a8.08,8.08,0,0,1,.66-.65,3.91,3.91,0,0,1,.52-.39,6.93,6.93,0,0,1,.75-.43l.22-.11a4,4,0,0,1,.44-.17c.3-.1.61-.19.92-.26a6.76,6.76,0,0,1,3.12.12,1.5,1.5,0,0,0,.8-2.89Z"/>
          </g>
        </g>
        <g>
          <circle class="cls-7" cx="609.06" cy="907.02" r="7.34"/>
          <g>
            <path class="cls-9" d="M589.42,896.11a7.94,7.94,0,0,0,10.11-8.44"/>
            <path d="M589,897.55a9.64,9.64,0,0,0,8.76-1.9,9.47,9.47,0,0,0,3.25-8,1.5,1.5,0,1,0-3,0,8.27,8.27,0,0,1,0,1.66,9.67,9.67,0,0,1-.43,1.6,5.62,5.62,0,0,1-.31.63,5.41,5.41,0,0,1-.45.72c0,.05-.2.29-.08.14-.1.12-.2.24-.31.35a5.79,5.79,0,0,1-.66.65,3.23,3.23,0,0,1-.51.39,8.2,8.2,0,0,1-.76.43s-.43.21-.21.11a4.13,4.13,0,0,1-.45.17,9.46,9.46,0,0,1-.91.26,6.75,6.75,0,0,1-3.12-.12,1.5,1.5,0,1,0-.8,2.89Z"/>
          </g>
          <g>
            <path class="cls-9" d="M628.6,896.11a7.94,7.94,0,0,1-10.12-8.44"/>
            <path d="M628.2,894.66a7.21,7.21,0,0,1-.92.21c.24,0-.21,0-.23,0l-.4,0a8.42,8.42,0,0,1-.87,0l-.23,0-.47-.08a9.46,9.46,0,0,1-.91-.26l-.37-.14c-.1,0-.1,0,0,0l-.21-.1a7.07,7.07,0,0,1-.76-.43,2.73,2.73,0,0,1-.58-.43,5.67,5.67,0,0,1-.61-.59,4,4,0,0,1-.4-.48c-.17-.26-.34-.52-.49-.79s-.14-.28-.21-.42,0,.08-.1-.21a8.55,8.55,0,0,1-.44-1.65c0,.26,0-.21,0-.21,0-.16,0-.31,0-.47,0-.31,0-.62,0-.93a1.5,1.5,0,0,0-1.5-1.5,1.54,1.54,0,0,0-1.5,1.5,9.54,9.54,0,0,0,3.25,8,9.69,9.69,0,0,0,8.77,1.9,1.5,1.5,0,1,0-.8-2.89Z"/>
          </g>
          <g>
            <path class="cls-9" d="M589.47,919.71a7.93,7.93,0,0,1,10.12,8.43"/>
            <path d="M589.87,921.16a7.21,7.21,0,0,1,.92-.21c-.24,0,.21,0,.23,0l.4,0a8.42,8.42,0,0,1,.87,0s.48.06.23,0a3.89,3.89,0,0,1,.47.09,9.41,9.41,0,0,1,.91.25l.37.14c.1,0,.1,0,0,0l.21.1c.26.13.52.27.76.42a3.12,3.12,0,0,1,.58.43,6.92,6.92,0,0,1,.61.6,4,4,0,0,1,.4.48c.17.26.34.51.49.79s.14.27.21.41,0-.08.1.22a8.45,8.45,0,0,1,.44,1.64c0-.26,0,.21,0,.22s0,.31,0,.46c0,.31,0,.62,0,.93a1.5,1.5,0,0,0,1.5,1.5,1.54,1.54,0,0,0,1.5-1.5,9.51,9.51,0,0,0-3.25-8,9.7,9.7,0,0,0-8.77-1.91,1.5,1.5,0,0,0,.8,2.9Z"/>
          </g>
          <g>
            <path class="cls-9" d="M628.65,919.71a7.93,7.93,0,0,0-10.11,8.43"/>
            <path d="M629.05,918.26a9.67,9.67,0,0,0-8.76,1.91,9.47,9.47,0,0,0-3.25,8,1.53,1.53,0,0,0,1.5,1.5,1.51,1.51,0,0,0,1.5-1.5,8.17,8.17,0,0,1,0-1.65,9.67,9.67,0,0,1,.43-1.6,4.87,4.87,0,0,1,.31-.63,6.24,6.24,0,0,1,.45-.73s.2-.28.08-.13l.31-.36a6.77,6.77,0,0,1,.66-.65,2.71,2.71,0,0,1,.51-.38,8.31,8.31,0,0,1,.76-.44s.43-.2.21-.11l.45-.17a9.41,9.41,0,0,1,.91-.25,6.62,6.62,0,0,1,3.12.12,1.5,1.5,0,1,0,.8-2.9Z"/>
          </g>
        </g>
        <g>
          <circle class="cls-7" cx="769.06" cy="906.12" r="7.34"/>
          <g>
            <path class="cls-9" d="M749.41,895.21a7.93,7.93,0,0,0,10.12-8.43"/>
            <path d="M749,896.66a9.66,9.66,0,0,0,8.77-1.91,9.5,9.5,0,0,0,3.25-8,1.54,1.54,0,0,0-1.5-1.5,1.51,1.51,0,0,0-1.5,1.5,9.08,9.08,0,0,1,0,1.66,9.79,9.79,0,0,1-.44,1.6,6.17,6.17,0,0,1-.3.62c-.14.25-.29.5-.45.73,0,.05-.21.28-.09.13-.09.13-.2.24-.3.36a8.08,8.08,0,0,1-.66.65,3.18,3.18,0,0,1-.52.38,7,7,0,0,1-.75.44s-.43.2-.22.11l-.44.17a7.36,7.36,0,0,1-.92.25,6.75,6.75,0,0,1-3.12-.11,1.5,1.5,0,0,0-.8,2.89Z"/>
          </g>
          <g>
            <path class="cls-9" d="M788.6,895.21a7.93,7.93,0,0,1-10.12-8.43"/>
            <path d="M788.2,893.77c-.31.08-.62.16-.93.21.25,0-.21,0-.23,0l-.4,0a8.43,8.43,0,0,1-.87,0s-.47-.06-.23,0a3.73,3.73,0,0,1-.46-.09,7.36,7.36,0,0,1-.92-.25l-.37-.14c-.1,0-.1,0,0,0l-.21-.11a8.09,8.09,0,0,1-.76-.42,4,4,0,0,1-.58-.43c-.21-.19-.42-.38-.61-.59a3.91,3.91,0,0,1-.4-.49,8.78,8.78,0,0,1-.49-.79l-.21-.41c-.13-.26,0,.08-.09-.21a8.77,8.77,0,0,1-.45-1.65c0,.26,0-.21,0-.22s0-.31,0-.46a7.23,7.23,0,0,1,0-.93,1.5,1.5,0,0,0-1.5-1.5,1.54,1.54,0,0,0-1.5,1.5,9.48,9.48,0,0,0,3.25,8,9.64,9.64,0,0,0,8.76,1.91,1.53,1.53,0,0,0,1-1.85,1.51,1.51,0,0,0-1.84-1Z"/>
          </g>
          <g>
            <path class="cls-9" d="M749.46,918.82a7.93,7.93,0,0,1,10.12,8.43"/>
            <path d="M749.86,920.26c.31-.08.62-.16.93-.21-.25,0,.2,0,.23,0l.39,0a8.33,8.33,0,0,1,.87,0s.48.06.24,0a3.73,3.73,0,0,1,.46.09,7.36,7.36,0,0,1,.92.25l.37.14h0l.22.11a8.09,8.09,0,0,1,.76.42,4,4,0,0,1,.58.43c.21.19.42.39.61.6a4,4,0,0,1,.4.48c.17.26.34.51.49.79l.21.41c.13.26,0-.08.09.21a8.77,8.77,0,0,1,.45,1.65c-.05-.26,0,.21,0,.22s0,.31,0,.46a7.23,7.23,0,0,1,0,.93,1.5,1.5,0,0,0,1.5,1.5,1.54,1.54,0,0,0,1.5-1.5,9.51,9.51,0,0,0-3.25-8,9.64,9.64,0,0,0-8.76-1.91,1.53,1.53,0,0,0-1.05,1.85,1.51,1.51,0,0,0,1.84,1Z"/>
          </g>
          <g>
            <path class="cls-9" d="M788.65,918.82a7.93,7.93,0,0,0-10.12,8.43"/>
            <path d="M789.05,917.37a9.69,9.69,0,0,0-8.77,1.91,9.51,9.51,0,0,0-3.25,8,1.54,1.54,0,0,0,1.5,1.5,1.51,1.51,0,0,0,1.5-1.5,9.08,9.08,0,0,1,0-1.66,8.87,8.87,0,0,1,.44-1.6,6.17,6.17,0,0,1,.3-.62c.14-.25.29-.5.45-.73,0,0,.21-.28.09-.13.09-.13.2-.24.3-.36a8.08,8.08,0,0,1,.66-.65,2.8,2.8,0,0,1,.52-.38,7,7,0,0,1,.75-.44s.43-.2.22-.11l.44-.17a7.36,7.36,0,0,1,.92-.25,6.75,6.75,0,0,1,3.12.11,1.5,1.5,0,0,0,.8-2.89Z"/>
          </g>
        </g>
        <g>
          <circle class="cls-7" cx="929.05" cy="905.23" r="7.34"/>
          <g>
            <path class="cls-9" d="M909.41,894.32a7.93,7.93,0,0,0,10.11-8.43"/>
            <path d="M909,895.77a9.67,9.67,0,0,0,8.76-1.91,9.47,9.47,0,0,0,3.25-8,1.5,1.5,0,1,0-3,0,8.17,8.17,0,0,1,0,1.65,9.67,9.67,0,0,1-.43,1.6,4.87,4.87,0,0,1-.31.63,8,8,0,0,1-.45.73l-.09.13q-.13.18-.3.36a5.79,5.79,0,0,1-.66.65,2.71,2.71,0,0,1-.51.38,8.31,8.31,0,0,1-.76.44s-.43.2-.21.11l-.45.17a7.21,7.21,0,0,1-.91.25,6.75,6.75,0,0,1-3.12-.11,1.5,1.5,0,1,0-.8,2.89Z"/>
          </g>
          <g>
            <path class="cls-9" d="M948.59,894.32a7.93,7.93,0,0,1-10.12-8.43"/>
            <path d="M948.19,892.88a9,9,0,0,1-.93.2c.25,0-.2,0-.23,0l-.39,0a6.32,6.32,0,0,1-.87,0s-.48-.06-.23,0a3.89,3.89,0,0,1-.47-.09,7.21,7.21,0,0,1-.91-.25l-.37-.14c-.1,0-.1,0,0,0l-.21-.11c-.26-.13-.52-.27-.76-.42a3.12,3.12,0,0,1-.58-.43,6.92,6.92,0,0,1-.61-.6,4,4,0,0,1-.4-.48c-.17-.26-.34-.51-.49-.79s-.14-.27-.21-.41,0,.08-.1-.22a8.45,8.45,0,0,1-.44-1.64c0,.26,0-.21,0-.22s0-.31,0-.46c0-.31,0-.62,0-.93a1.5,1.5,0,0,0-1.5-1.5,1.54,1.54,0,0,0-1.5,1.5,9.51,9.51,0,0,0,3.25,8,9.7,9.7,0,0,0,8.77,1.91,1.5,1.5,0,1,0-.8-2.89Z"/>
          </g>
          <g>
            <path class="cls-9" d="M909.46,917.92a7.93,7.93,0,0,1,10.11,8.44"/>
            <path d="M909.86,919.37c.3-.08.61-.16.92-.21-.24,0,.21,0,.23,0l.4,0a8.42,8.42,0,0,1,.87,0l.23,0,.47.08a9.46,9.46,0,0,1,.91.26l.37.14c.1,0,.1,0,0,0l.21.1a7.07,7.07,0,0,1,.76.43,3.12,3.12,0,0,1,.58.43,5.67,5.67,0,0,1,.61.59,4,4,0,0,1,.4.48c.17.26.34.52.49.79s.14.28.21.42,0-.08.1.21a8.55,8.55,0,0,1,.44,1.65c0-.26,0,.21,0,.22s0,.31,0,.46a7.23,7.23,0,0,1,0,.93,1.5,1.5,0,0,0,3,0,9.48,9.48,0,0,0-3.24-8,9.67,9.67,0,0,0-8.77-1.91,1.5,1.5,0,1,0,.8,2.89Z"/>
          </g>
          <g>
            <path class="cls-9" d="M948.64,917.92a7.94,7.94,0,0,0-10.11,8.44"/>
            <path d="M949,916.48a9.64,9.64,0,0,0-8.77,1.91,9.46,9.46,0,0,0-3.24,8,1.5,1.5,0,0,0,3,0,8.27,8.27,0,0,1,0-1.66,9.67,9.67,0,0,1,.43-1.6,5.62,5.62,0,0,1,.31-.63,5.41,5.41,0,0,1,.45-.72s.2-.29.08-.13l.3-.36a6.86,6.86,0,0,1,.67-.65,3.23,3.23,0,0,1,.51-.39,8.2,8.2,0,0,1,.76-.43s.43-.21.21-.11a4.13,4.13,0,0,1,.45-.17,9.46,9.46,0,0,1,.91-.26,6.75,6.75,0,0,1,3.12.12,1.5,1.5,0,1,0,.8-2.89Z"/>
          </g>
        </g>
      </g>
      <g>
        <g>
          <circle class="cls-7" cx="369.07" cy="980.87" r="7.34"/>
          <g>
            <path class="cls-9" d="M349.43,970a7.94,7.94,0,0,0,10.11-8.44"/>
            <path d="M349,971.4a9.64,9.64,0,0,0,8.76-1.9,9.5,9.5,0,0,0,3.25-8,1.5,1.5,0,0,0-3,0,9.07,9.07,0,0,1,0,1.66,8.87,8.87,0,0,1-.44,1.6,3.93,3.93,0,0,1-.3.63q-.21.38-.45.72s-.2.29-.09.14a3.27,3.27,0,0,1-.3.35,8.08,8.08,0,0,1-.66.65,2.93,2.93,0,0,1-.52.39,6.93,6.93,0,0,1-.75.43l-.22.11a3.34,3.34,0,0,1-.44.17c-.3.1-.61.19-.92.26a6.76,6.76,0,0,1-3.12-.12,1.5,1.5,0,1,0-.79,2.89Z"/>
          </g>
          <g>
            <path class="cls-9" d="M388.61,970a7.94,7.94,0,0,1-10.12-8.44"/>
            <path d="M388.21,968.51a7.36,7.36,0,0,1-.93.21c.25,0-.2,0-.23,0l-.39,0a8.42,8.42,0,0,1-.87,0s-.48-.06-.23,0l-.47-.09c-.31-.07-.62-.16-.92-.26l-.37-.14h0l-.22-.1a6.93,6.93,0,0,1-.75-.43,3.1,3.1,0,0,1-.59-.43,8.42,8.42,0,0,1-.61-.59,3.69,3.69,0,0,1-.39-.48c-.18-.26-.35-.52-.5-.79l-.21-.42c-.13-.26,0,.08-.09-.21a8.55,8.55,0,0,1-.44-1.65c0,.27,0-.21,0-.21,0-.16,0-.31,0-.47,0-.31,0-.62,0-.93a1.5,1.5,0,0,0-1.5-1.5,1.54,1.54,0,0,0-1.5,1.5,9.54,9.54,0,0,0,3.25,8,9.69,9.69,0,0,0,8.77,1.9,1.5,1.5,0,0,0-.8-2.89Z"/>
          </g>
          <g>
            <path class="cls-9" d="M349.48,993.56a7.93,7.93,0,0,1,10.11,8.43"/>
            <path d="M349.88,995a7.21,7.21,0,0,1,.92-.21c-.24,0,.21,0,.23,0l.4,0a8.42,8.42,0,0,1,.87,0s.48.06.23,0l.47.09a9.41,9.41,0,0,1,.91.25l.37.14c.1,0,.1,0,0,0l.21.1c.26.13.52.27.76.42a3.12,3.12,0,0,1,.58.43,6.92,6.92,0,0,1,.61.6,4,4,0,0,1,.4.48c.17.26.34.52.49.79s.14.27.21.41,0-.08.1.22a9.23,9.23,0,0,1,.44,1.64c0-.26,0,.21,0,.22s0,.31,0,.46a7.16,7.16,0,0,1,0,.93,1.5,1.5,0,0,0,3,0,9.46,9.46,0,0,0-3.25-8,9.67,9.67,0,0,0-8.76-1.91,1.5,1.5,0,1,0,.8,2.9Z"/>
          </g>
          <g>
            <path class="cls-9" d="M388.66,993.56a7.93,7.93,0,0,0-10.12,8.43"/>
            <path d="M389.06,992.11a9.69,9.69,0,0,0-8.77,1.91,9.52,9.52,0,0,0-3.25,8,1.54,1.54,0,0,0,1.5,1.5,1.5,1.5,0,0,0,1.5-1.5,10,10,0,0,1,0-1.65,9.79,9.79,0,0,1,.44-1.6,5.62,5.62,0,0,1,.31-.63,7.85,7.85,0,0,1,.44-.73s.21-.28.09-.13l.3-.36a8.25,8.25,0,0,1,.67-.65,2.71,2.71,0,0,1,.51-.38,8.15,8.15,0,0,1,.75-.44s.44-.2.22-.11l.45-.17a9.41,9.41,0,0,1,.91-.25,6.62,6.62,0,0,1,3.12.12,1.5,1.5,0,1,0,.8-2.9Z"/>
          </g>
        </g>
        <g>
          <circle class="cls-7" cx="529.06" cy="979.97" r="7.34"/>
          <g>
            <path class="cls-9" d="M509.42,969.06a7.93,7.93,0,0,0,10.12-8.43"/>
            <path d="M509,970.51a9.66,9.66,0,0,0,8.77-1.91,9.5,9.5,0,0,0,3.25-8,1.54,1.54,0,0,0-1.5-1.5,1.5,1.5,0,0,0-1.5,1.5,9.08,9.08,0,0,1,0,1.66,9.79,9.79,0,0,1-.44,1.6,4.92,4.92,0,0,1-.31.62,6.73,6.73,0,0,1-.44.73s-.21.29-.09.13l-.3.36a6.86,6.86,0,0,1-.67.65,3.23,3.23,0,0,1-.51.39c-.24.15-.49.3-.75.43,0,0-.44.2-.22.11l-.45.17a9.46,9.46,0,0,1-.91.26,6.89,6.89,0,0,1-3.12-.12,1.5,1.5,0,1,0-.8,2.89Z"/>
          </g>
          <g>
            <path class="cls-9" d="M548.6,969.06a7.93,7.93,0,0,1-10.11-8.43"/>
            <path d="M548.2,967.62c-.3.08-.61.16-.92.21.24,0-.21,0-.23,0l-.4,0a6.33,6.33,0,0,1-.87,0s-.48-.06-.23,0l-.47-.08c-.3-.07-.61-.16-.91-.26l-.37-.14c-.1,0-.1,0,0,0l-.21-.1a7.07,7.07,0,0,1-.76-.43,3.49,3.49,0,0,1-.58-.43,5.67,5.67,0,0,1-.61-.59,3.29,3.29,0,0,1-.4-.49,8.78,8.78,0,0,1-.49-.79c-.08-.13-.14-.27-.21-.41s0,.08-.1-.21a9.57,9.57,0,0,1-.44-1.65c0,.26,0-.21,0-.22s0-.31,0-.46a7.23,7.23,0,0,1,0-.93,1.5,1.5,0,1,0-3,0,9.46,9.46,0,0,0,3.25,8,9.64,9.64,0,0,0,8.76,1.91,1.5,1.5,0,1,0-.8-2.89Z"/>
          </g>
          <g>
            <path class="cls-9" d="M509.47,992.67a7.93,7.93,0,0,1,10.12,8.43"/>
            <path d="M509.87,994.11c.31-.08.61-.15.93-.2l.23,0,.39,0a8.43,8.43,0,0,1,.87,0s.48.06.23,0a3.55,3.55,0,0,1,.47.09,7.36,7.36,0,0,1,.92.25l.37.14h0l.22.11a6.86,6.86,0,0,1,.75.42,3.6,3.6,0,0,1,.59.43c.21.19.41.39.61.6a3.69,3.69,0,0,1,.39.48,8.09,8.09,0,0,1,.5.79l.21.41c.13.26,0-.08.09.21a8.74,8.74,0,0,1,.44,1.65c0-.26,0,.21,0,.22s0,.31,0,.46c0,.31,0,.62,0,.93a1.5,1.5,0,0,0,1.5,1.5,1.54,1.54,0,0,0,1.5-1.5,9.51,9.51,0,0,0-3.25-8,9.67,9.67,0,0,0-8.77-1.91,1.5,1.5,0,0,0,.8,2.89Z"/>
          </g>
          <g>
            <path class="cls-9" d="M548.65,992.67a7.93,7.93,0,0,0-10.11,8.43"/>
            <path d="M549.05,991.22a9.68,9.68,0,0,0-8.76,1.91,9.49,9.49,0,0,0-3.25,8,1.5,1.5,0,0,0,3,0,6.34,6.34,0,0,1,.45-3.26,4,4,0,0,1,.3-.62c.14-.25.29-.5.45-.73l.09-.13q.13-.18.3-.36a8.08,8.08,0,0,1,.66-.65,2.5,2.5,0,0,1,.52-.38,7,7,0,0,1,.75-.44s.43-.2.22-.11l.44-.17a7.36,7.36,0,0,1,.92-.25,6.75,6.75,0,0,1,3.12.11,1.5,1.5,0,1,0,.79-2.89Z"/>
          </g>
        </g>
        <g>
          <circle class="cls-7" cx="689.06" cy="979.53" r="7.34"/>
          <g>
            <path class="cls-9" d="M669.42,968.62a7.93,7.93,0,0,0,10.11-8.44"/>
            <path d="M669,970.06a9.64,9.64,0,0,0,8.76-1.9,9.5,9.5,0,0,0,3.25-8,1.54,1.54,0,0,0-1.5-1.5,1.52,1.52,0,0,0-1.5,1.5,9.07,9.07,0,0,1,0,1.66,8.87,8.87,0,0,1-.44,1.6,5.1,5.1,0,0,1-.3.63c-.14.25-.29.49-.45.73l-.09.13a3.27,3.27,0,0,1-.3.35q-.32.35-.66.66a2.92,2.92,0,0,1-.52.38,6.93,6.93,0,0,1-.75.43s-.43.21-.22.12l-.44.16a7.4,7.4,0,0,1-.92.26,6.63,6.63,0,0,1-3.12-.12,1.5,1.5,0,0,0-.79,2.89Z"/>
          </g>
          <g>
            <path class="cls-9" d="M708.6,968.62a7.93,7.93,0,0,1-10.12-8.44"/>
            <path d="M708.2,967.17a7.36,7.36,0,0,1-.93.21c.25,0-.2,0-.23,0l-.39,0a8.42,8.42,0,0,1-.87,0s-.48-.06-.23,0l-.47-.09a7.4,7.4,0,0,1-.92-.26l-.37-.13c-.09,0-.09,0,0,0l-.22-.1a6.93,6.93,0,0,1-.75-.43,3.59,3.59,0,0,1-.59-.42c-.21-.19-.41-.39-.61-.6a3.69,3.69,0,0,1-.39-.48c-.18-.26-.35-.52-.5-.79l-.21-.42c-.13-.26,0,.09-.09-.21a8.36,8.36,0,0,1-.44-1.65c0,.27,0-.21,0-.21,0-.16,0-.31,0-.47,0-.31,0-.62,0-.93a1.51,1.51,0,0,0-1.5-1.5,1.54,1.54,0,0,0-1.5,1.5,9.52,9.52,0,0,0,3.25,8,9.66,9.66,0,0,0,8.77,1.9,1.5,1.5,0,0,0-.8-2.89Z"/>
          </g>
          <g>
            <path class="cls-9" d="M669.47,992.22a7.93,7.93,0,0,1,10.11,8.44"/>
            <path d="M669.87,993.67a7.21,7.21,0,0,1,.92-.21c-.24,0,.21,0,.23,0l.4,0a8.42,8.42,0,0,1,.87,0s.47.06.23,0l.47.09a7.77,7.77,0,0,1,.91.26l.37.13c.1,0,.1,0,0,0l.21.1a7.07,7.07,0,0,1,.76.43,3.48,3.48,0,0,1,.58.42,6.92,6.92,0,0,1,.61.6,4,4,0,0,1,.4.48c.17.26.34.52.49.79l.21.42c.13.26,0-.09.1.21a9.23,9.23,0,0,1,.44,1.64c0-.26,0,.22,0,.22,0,.16,0,.31,0,.47a7.23,7.23,0,0,1,0,.93,1.5,1.5,0,0,0,3,0,9.46,9.46,0,0,0-3.25-8,9.67,9.67,0,0,0-8.76-1.91,1.5,1.5,0,1,0,.8,2.9Z"/>
          </g>
          <g>
            <path class="cls-9" d="M708.65,992.22a7.93,7.93,0,0,0-10.12,8.44"/>
            <path d="M709.05,990.77a9.69,9.69,0,0,0-8.77,1.91,9.53,9.53,0,0,0-3.25,8,1.55,1.55,0,0,0,1.5,1.5,1.5,1.5,0,0,0,1.5-1.5,9.07,9.07,0,0,1,0-1.66,9.79,9.79,0,0,1,.44-1.6,5.62,5.62,0,0,1,.31-.63,7.85,7.85,0,0,1,.44-.73s.21-.28.09-.13l.3-.35a8.36,8.36,0,0,1,.67-.66,3.22,3.22,0,0,1,.51-.38,6.93,6.93,0,0,1,.75-.43s.43-.21.22-.12l.45-.16a7.25,7.25,0,0,1,.91-.26,6.62,6.62,0,0,1,3.12.12,1.5,1.5,0,1,0,.8-2.9Z"/>
          </g>
        </g>
        <g>
          <circle class="cls-7" cx="849.05" cy="978.64" r="7.34"/>
          <g>
            <path class="cls-9" d="M829.41,967.73a7.93,7.93,0,0,0,10.12-8.44"/>
            <path d="M829,969.17a9.66,9.66,0,0,0,8.77-1.9,9.53,9.53,0,0,0,3.25-8,1.54,1.54,0,0,0-1.5-1.5,1.5,1.5,0,0,0-1.5,1.5,10.06,10.06,0,0,1,0,1.66,9.79,9.79,0,0,1-.44,1.6,5.62,5.62,0,0,1-.31.63,6.59,6.59,0,0,1-.44.72c0,.05-.21.29-.09.14l-.3.35a6.86,6.86,0,0,1-.67.65,3.23,3.23,0,0,1-.51.39,8,8,0,0,1-.75.43l-.22.11a4.13,4.13,0,0,1-.45.17,9.46,9.46,0,0,1-.91.26,6.62,6.62,0,0,1-3.12-.12,1.5,1.5,0,1,0-.8,2.89Z"/>
          </g>
          <g>
            <path class="cls-9" d="M868.59,967.73a7.93,7.93,0,0,1-10.11-8.44"/>
            <path d="M868.19,966.28a7.21,7.21,0,0,1-.92.21c.24,0-.21,0-.23,0l-.4,0a8.42,8.42,0,0,1-.87,0s-.48-.06-.23,0l-.47-.09a9.46,9.46,0,0,1-.91-.26l-.37-.14c-.1,0-.1,0,0,0l-.21-.1a7.07,7.07,0,0,1-.76-.43,2.73,2.73,0,0,1-.58-.43,5.67,5.67,0,0,1-.61-.59,4,4,0,0,1-.4-.48c-.17-.26-.34-.52-.49-.79s-.14-.28-.21-.42,0,.09-.1-.21a9.33,9.33,0,0,1-.44-1.65c0,.27,0-.21,0-.21,0-.16,0-.31,0-.47a7.23,7.23,0,0,1,0-.93,1.5,1.5,0,0,0-3,0,9.49,9.49,0,0,0,3.25,8,9.67,9.67,0,0,0,8.76,1.9,1.5,1.5,0,1,0-.8-2.89Z"/>
          </g>
          <g>
            <path class="cls-9" d="M829.46,991.33a7.93,7.93,0,0,1,10.12,8.43"/>
            <path d="M829.86,992.78a7.36,7.36,0,0,1,.93-.21c-.25,0,.2,0,.23,0l.39,0a8.42,8.42,0,0,1,.87,0s.48.06.23,0c.16,0,.32,0,.47.09.31.07.62.15.92.25l.37.14c.09,0,.09,0,0,0l.22.1a6.93,6.93,0,0,1,.75.43,3.08,3.08,0,0,1,.59.42c.21.19.41.39.61.6a3.69,3.69,0,0,1,.39.48c.18.26.35.52.5.79l.21.41c.13.26,0-.08.09.22a8.45,8.45,0,0,1,.44,1.64c0-.26,0,.21,0,.22s0,.31,0,.46c0,.32,0,.62,0,.93a1.5,1.5,0,0,0,1.5,1.5,1.54,1.54,0,0,0,1.5-1.5,9.51,9.51,0,0,0-3.25-8,9.7,9.7,0,0,0-8.77-1.91,1.5,1.5,0,0,0,.8,2.9Z"/>
          </g>
          <g>
            <path class="cls-9" d="M868.64,991.33a7.93,7.93,0,0,0-10.11,8.43"/>
            <path d="M869,989.88a9.68,9.68,0,0,0-8.76,1.91,9.49,9.49,0,0,0-3.25,8,1.53,1.53,0,0,0,1.5,1.5,1.51,1.51,0,0,0,1.5-1.5,9,9,0,0,1,0-1.65,8.87,8.87,0,0,1,.44-1.6,3.93,3.93,0,0,1,.3-.63c.14-.25.29-.49.45-.73l.09-.13q.13-.18.3-.36c.21-.23.43-.44.66-.65a2.5,2.5,0,0,1,.52-.38,7,7,0,0,1,.75-.44s.43-.2.22-.11l.44-.17c.3-.1.61-.18.92-.25a6.63,6.63,0,0,1,3.12.12,1.5,1.5,0,0,0,.79-2.9Z"/>
          </g>
        </g>
      </g>
    </g>
    <path class="cls-7" d="M143.81,1091.65c-1.1-1.23-1.2-1.58-.21-2.91,11.5-15.52,12.76-36.09,13.6-55.39q1.78-41.29,3.56-82.59c1.21-28,2.4-56.32-2.78-83.88-2.3-12.26-5.88-24.5-5.25-37a14.28,14.28,0,0,1,1.45-6.34c3.38-6,12-5.39,18.81-4.07a608.55,608.55,0,0,0,124.82,11.1c17.62-.25,35.28-1.27,52.85.16,13.48,1.1,26.8,3.63,40.23,5.24,34.85,4.17,70.11,2.06,105.14,0l48.08-2.89c24.7-1.49,49.77-3.05,73.13-11.23,5.76-2,12.88-4.2,17.36,0,3.27,3,3.4,8.12,3.07,12.59C635.25,867,621.06,898.49,623.82,931c1.58,18.64,8.73,36.71,8.32,55.42-.29,13.14-4.31,26-4.13,39.17.32,23.76,14.09,45,27.36,64.67a666.39,666.39,0,0,0-123.21.89c-13.71,1.37-27.42,3.18-41.2,3.18-29.93,0-59.63-8.43-89.47-6-15.52,1.24-30.71,5.4-46.24,6.4-11.59.74-23.2-.28-34.8-.73-9.08-.36-18.17-.56-27.26-.37-63,1.36-95.17-4.69-149.38-2"/>
    <path class="cls-7" d="M1074.08,1091.65C995,750.54,1201.92,828.55,867.24,830.78c-87.6,11.79-180.21,9.94-266.58-8.93-48.41-13.66,4.38,84.7-6.59,109.16-16.35,54.47,11.14,113-31.55,159.27,70.25-1.14,144.11-5.43,216-4.36,100.33,1.5,198.75,8.54,295.59,5.73"/>
    <path class="cls-7" d="M974.33,1050.27C920.85,846.74,1046.51,890,845.5,897.18c-52.42,8.62-108.08,9.13-160.3-.69-29.32-7.36,4.12,50.81-2.05,65.69-8.87,33,8.68,67.69-16.16,96.23,42.18-1.91,86.48-5.78,129.67-6.4,60.29-.86,119.54,1.65,177.67-1.74"/>
    <path class="cls-7" d="M199.57,1072.34c-.73-.86-.79-1.1-.09-2,8.14-10.31,9.42-24.27,10.39-37.36L214,976.94c1.4-19,2.8-38.22-.16-57.06-1.31-8.38-3.49-16.77-2.8-25.23a9.86,9.86,0,0,1,1.11-4.28c2.42-4,8.31-3.4,12.87-2.37a414.62,414.62,0,0,0,84.6,10.13c12,.19,24-.14,35.91,1.2,9.14,1,18.14,3,27.23,4.39,23.6,3.55,47.61,2.85,71.46,2.14l32.73-1c16.82-.5,33.89-1,49.93-6.12,4-1.26,8.85-2.59,11.8.33,2.16,2.14,2.14,5.59,1.83,8.62-2.32,22.07-12.61,43.22-11.41,65.38.69,12.7,5.17,25.13,4.5,37.83-.46,8.93-3.46,17.6-3.61,26.54-.27,16.15,8.65,30.85,17.26,44.51A453.34,453.34,0,0,0,463.5,1080c-9.35.65-18.7,1.59-28.07,1.31-20.34-.6-40.35-7-60.68-5.95-10.57.52-21,3-31.56,3.39-7.88.27-15.75-.67-23.63-1.22-6.16-.42-12.34-.75-18.52-.81-42.84-.38-64.58-5.15-101.47-4.42"/>
    <rect class="cls-7" x="109.63" y="1014.16" width="977.08" height="93.38" rx="12"/>
    <rect class="cls-1" x="-49.9" y="-39.55" width="1920" height="1079.11"/>
    <path d="M957.41,662.69c.19-1.1,1.51-1.93,2.42-2.45a8.46,8.46,0,0,1,3.32-1.06c2.24-.23,5.18.33,6.21,2.59a1.53,1.53,0,0,0,2,.54,1.54,1.54,0,0,0,.54-2.06c-1.48-3.25-5.73-4.41-9-4a11.86,11.86,0,0,0-4.81,1.56c-1.49.89-3.31,2.32-3.61,4.13a1.53,1.53,0,0,0,1,1.84,1.51,1.51,0,0,0,1.85-1Z"/>
    <path class="cls-8" d="M1041.23,709.57c-13.73,3-28.37-1.22-39.11-10.27a46.9,46.9,0,0,1-16.36-37.25l.06-.3a3.37,3.37,0,0,1,2-2.49,11.26,11.26,0,0,1,2.32-1,8.74,8.74,0,0,1,10,4.22l1.16,1.45a36.22,36.22,0,0,0,13.91,24.7A33.21,33.21,0,0,0,1041.6,695l.39.34a6.08,6.08,0,0,1,2.36,3.62,17.94,17.94,0,0,1,.37,4.39,11.33,11.33,0,0,1-.21,2.67c-.47,1.84-3.28,3.6-3.28,3.6,2.67,1.65,4.41,3,4.79,6.34a12.65,12.65,0,0,1-.55,3.27c-.59,1.55-1.14,1.46-3,2.34l-.84.43c-11.5,3-26.38,1-38-3.58-11.14-4.43-21.26-13-26-24-2.08-4.82-4.32-9.26-5.26-14.42q-1.51-8.37-2.33-16.84c0-.49-.11-.82-.11-.82l-.11-.75A7.32,7.32,0,0,1,974,657.8a10.8,10.8,0,0,1,6-.61,9.1,9.1,0,0,1,2.17.61,6.58,6.58,0,0,1,3.69,3.09"/>
    <path class="cls-8" d="M1041.85,722.68c2.41,1.63,2.63,4.06,2.92,7a6.73,6.73,0,0,1-.37,4c-.61,1.64-.76,1.69-2.55,3-9.15.24-20.56.27-29.59-1.27-17.25-2.94-31.08-10.9-41.76-24.76a71.14,71.14,0,0,1-14.36-49.23"/>
    <path d="M1039.83,668.21V695l1.1-1.45a32.55,32.55,0,0,1-22.9-4.83,34.68,34.68,0,0,1-14-19.06c-.31-1-.57-2.1-.78-3.16s-.12-2.48-.6-3.36a7.8,7.8,0,0,0-.88-1.11c-.43-.53-.64-1-1.06-1.54l-1.29,2.26H1033c.57,0,1.15,0,1.71,0a5.53,5.53,0,0,1,5.14,5.46c0,1.92,3,1.93,3,0a8.62,8.62,0,0,0-8.71-8.47c-2.1,0-4.2,0-6.29,0H999.42c-1,0-2,1.32-1.3,2.25s1.4,2,2.18,3l-.44-1.06c1.73,15.49,13.26,29.4,28.84,32.42a37.52,37.52,0,0,0,13,.12,1.5,1.5,0,0,0,1.1-1.44V668.21A1.5,1.5,0,0,0,1039.83,668.21Z"/>
    <path class="cls-7" d="M943.54,661.91c-.08,16.78.28,33.55.63,50.32l.62,28.72,1.48,69.15"/>
    <path class="cls-7" d="M955.82,661c-.09,16,.27,32,.63,48l.61,27.39,1.65,73.34"/>
    <path d="M956.44,659.83a10.11,10.11,0,0,0-8-2.49c-2.64.35-6.22,1.88-6.46,4.92a1.5,1.5,0,0,0,3,0c0,.08.07-.14.12-.21a4.23,4.23,0,0,1,.37-.37,6.23,6.23,0,0,1,1.13-.71,6.88,6.88,0,0,1,2.53-.7,7,7,0,0,1,5.16,1.69,1.55,1.55,0,0,0,2.12,0,1.52,1.52,0,0,0,0-2.13Z"/>
    <path class="cls-5" d="M946.74,802.6l.53,7.5-.1-.27"/>
    <path class="cls-5" d="M948.54,803.14l1,6.38"/>
    <path class="cls-5" d="M951.19,802.53a18.59,18.59,0,0,0,.33,6.22.63.63,0,0,0,.15.33c.1.08.27.08.32,0"/>
    <path class="cls-5" d="M953.6,802.45l.15,7a.18.18,0,0,0,.06.16c.05,0,.12-.05.08-.08"/>
    <path class="cls-5" d="M955.9,803q.15,3.78.66,7.53"/>
    <g>
      <circle class="cls-9" cx="1242.12" cy="703.34" r="17.71"/>
      <path d="M1242.12,687.13a16.21,16.21,0,1,1-16.2,16.21,16.23,16.23,0,0,1,16.2-16.21m0-3a19.21,19.21,0,1,0,19.21,19.21,19.21,19.21,0,0,0-19.21-19.21Z"/>
    </g>
    <path class="cls-5" d="M1268.55,687.24c5.86,2.25,13.53,2.69,20.75,2.94,14.41.5,29,.55,42.91-1"/>
    <path class="cls-5" d="M1266.7,719.61a72.32,72.32,0,0,1,21.76-2.76c14.42.41,29,1.28,42.76,3.7"/>
    <path class="cls-5" d="M1261.33,709.92a10.84,10.84,0,0,1,5.37,9.69"/>
    <path class="cls-5" d="M1259.77,693.89a39.67,39.67,0,0,0,9-5.94"/>
    <path class="cls-5" d="M1331.08,720.54c3.22-.57,5.71-3.33,6.89-6.38s1.27-6.41,1.36-9.68a33.43,33.43,0,0,0-.11-4.8,16.7,16.7,0,0,0-5.44-10.39"/>
    <path class="cls-5" d="M1276.49,701.69c-.41,1.16-.75,2.62.12,3.49a2.5,2.5,0,0,0,1.91.57,4.87,4.87,0,0,0,3.93-2.49,2.13,2.13,0,0,0,.18-2,2,2,0,0,0-1-.78,4.24,4.24,0,0,0-5.25,1.8"/>
    <path class="cls-5" d="M1296.91,709.47a17,17,0,0,1,6.07-.4"/>
    <path class="cls-5" d="M1295.09,697a9.56,9.56,0,0,0,6.39-.85"/>
  </g>
</svg>
