<svg xmlns="http://www.w3.org/2000/svg" viewBox="0 0 575 352.88"><defs><style>.cls-1{fill:#ef476f;}</style></defs><g id="Layer_2" data-name="Layer 2"><g id="Layer_1-2" data-name="Layer 1"><path class="cls-1" d="M169.25.81c-7.1,1.1-10.6,3.2-10.6,6.3,0,1.2,2.7,6.2,6.1,11.2,16.2,23.8,24.7,50.1,35.4,109.5,5.3,29.2,14.1,59.8,22.4,77.5,4.2,8.9,12.5,22.6,17.9,29.5,8.5,10.8,21.6,23,24.8,23,1.5,0,20-19,24.8-25.5,19.9-26.8,28.5-51.1,40.1-113,10.1-53.6,17.6-76.3,33.6-101.1,6.1-9.4,6.9-12.2,4.4-14.7-4.2-4.2-37.6-4.8-48.5-.9-9,3.2-14,6.1-18.1,10.5-8.9,9.5-11.2,19.4-12.9,56.2-1.7,38.2-3.5,50.9-9.1,65.3-4.6,12.2-10.8,20.2-15.3,20.2-2.8,0-8.3-5.9-11.9-12.8-6.8-12.9-9.9-29.4-11.7-61.7-1.3-24.5-2.7-41.3-4-47.4-3.5-16.4-10.2-23.7-26.9-29.9-5.5-2-8.8-2.4-20.6-2.7C181.45.11,172.45.31,169.25.81Zm51.8,83.9c2.1,1.8,5.8,8.9,7.4,14.1,11.2,36.8,15.3,45.7,25.6,56.5,5.3,5.6,7.8,7.5,9.7,7.5,6,0,17.3-12.1,22.9-24.5,1.5-3.3,5.5-14.6,9-25s7.3-21,8.6-23.5c6.5-11.8,13.7-10,16.4,4,2,10.6-1.8,42-8,65.5-5.8,22.4-17,49.3-25.9,62.3-4.5,6.7-17.5,19.9-20.4,20.8-3.4,1.1-6.2-.5-13.1-7.3-8-7.9-12.5-14.4-19.4-27.4-16.9-31.9-30.1-93.5-25.1-116.8C210.45,82.61,215.75,80,221.05,84.71Z"/><path class="cls-1" d="M80.15,7.71c-21.3,3.4-38.3,14.3-53.1,33.8C15,57.51,9,71.61,2.75,99c-1.9,8.4-3.2,28.9-2.6,41.3,2.4,45.8,19.1,83.6,45.7,103.1,6.6,4.9,20,10.9,28.5,12.8,9,2,26.5,2.1,35.6.1,8.6-1.8,23.4-8.8,31.3-14.8,8.8-6.7,20.5-20.8,26.4-31.8,7.3-13.7,13.6-35,15.9-53.9,1.2-9.2,1.5-22,.5-22-.3,0-4.5,4-9.2,8.8a193.4,193.4,0,0,1-16.7,14.8l-8,6-.6,11.9c-.7,14.4-2.6,22-8.4,34-5.7,11.8-13.4,20.9-23,27.3-9.4,6.4-15.4,8.2-26.5,8.2-11.7,0-20.4-2.6-29.2-8.6-7.6-5.2-11.1-8.9-18.9-20.4l-5.1-7.5.5-8.5c1.2-20.7,12.9-34.7,46.2-54.9,33.6-20.5,39.2-24.5,51.4-36.4,15.2-14.9,24-31.6,24.9-47.3.4-7.9.3-8.5-3.3-16-3-6.3-5.7-9.7-12.9-17-7.5-7.5-10.7-9.9-17.6-13.2a93.2,93.2,0,0,0-15-5.7C104.85,7.51,87.05,6.61,80.15,7.71Zm22.1,45.5a146.28,146.28,0,0,1,15.5,3.9c7.5,2.6,19.7,8.9,21.2,11s0,12.5-2.6,18.1-6.6,11.6-9.7,14.6c-8.8,8.5-16.2,14.3-28.7,22.5-44,29-47,31.2-56,42.2-4.7,5.7-10.2,15.5-13.2,23.5-2,5.3-3.9,3.4-7.6-7.7-6.2-18.5-7.7-27.5-7.8-46.9-.1-16.9.1-18.7,2.7-28.1,6.9-24.8,22-41.8,44.3-49.6A81.92,81.92,0,0,1,102.25,53.21Z"/><path class="cls-1" d="M424.85,7.91c-7.5,1.3-19.7,6.2-27,11-16.8,11-26.5,24-33.5,45.1-4.3,12.9-5.1,21.5-4.1,47.7,1.5,42.9,1.2,57.4-1.4,66.9-4.6,17-10.1,30-16.4,38.8-1.7,2.5-2.6,4.7-2.2,5.7.8,2.2,18,15.9,25.4,20.4a100.13,100.13,0,0,0,65.3,12.9c26.4-4.2,42.8-13.7,61.3-35.7,3.7-4.3,7.2-7.8,7.8-7.6s1.8,7.1,2.7,15.3c1.7,15.4,3.3,22.9,4.9,23.9.6.3,5.8-.6,11.7-2.1,9.3-2.4,12.7-2.7,24.3-2.6,9.4,0,16,.7,21.7,2,4.5,1,8.8,1.5,9.4,1.1.8-.5-.3-2.1-3.5-5-6.5-5.9-15-17.5-21.4-28.9-15-27.1-22.6-56.7-25.2-97.5-1.2-18.7-3.6-32.6-7.6-43.7-10-27.9-28.6-51.8-47.7-61.5-6.8-3.4-12.6-5-22.7-6.3C437.05,6.71,432.35,6.71,424.85,7.91Zm25.8,16.2C478.45,35.41,500.85,66,501,93c0,14.4-9.7,20.2-24.9,14.8-23.9-8.3-41-33.2-43.9-63.5-.7-6.5.7-20.4,2.2-22.8C435.25,20,443.85,21.41,450.65,24.11ZM423,26.51a38.75,38.75,0,0,1-.3,7.8c-1.1,11.8.4,24.9,4,34.8,4.7,13,11.8,23.4,29.2,42.7,18.1,20.1,25.1,33.8,26.4,50.8,1.9,26.8-14.1,51.7-38.6,59.8-15.7,5.2-39.5-1-51.9-13.6-6.7-6.8-13.3-20.1-15.6-31.5-8.6-41.9,6.6-104.4,34.2-140.6C416.45,28.61,421.75,24.31,423,26.51Z"/><path class="cls-1" d="M264.15,296.11c-1.3.7-1.5,5.2-1.5,27.5,0,19.5.3,27.1,1.2,28,1.6,1.6,59,1.7,61.9.2,1.4-.8,1.9-2.1,1.9-5.5,0-2.4-.6-4.7-1.2-5.2s-9.6-1-19.8-1.3l-18.5-.5-.3-21c-.1-12.6-.6-21.3-1.3-22C285.35,295.11,266.25,294.91,264.15,296.11Z"/><path class="cls-1" d="M341.05,296.21c-1.8,1.4-1.9,2.9-1.7,27.7.2,23.8.4,26.5,1.9,27.6,2.4,1.7,20.5,1.8,22.2.1s1.7-53.1-.1-54.6C361.15,295.21,343.35,294.61,341.05,296.21Z"/><path class="cls-1" d="M448.35,295.71c-2.4.8-2.8,2.7-2.2,11.8.8,11.6,0,17.3-2.5,17.3-.9,0-10.2-6.3-20.5-14s-19.7-14.3-20.9-14.6a51.79,51.79,0,0,0-9.6-.2c-6.9.3-7.5.5-8.1,2.8-1.3,4.6-1,51.5.3,52.8,1.6,1.6,21,1.6,22.6,0,.8-.8,1.2-5.6,1.2-14.9,0-8.3.4-14,1-14.4,1.1-.7,11.4,5.8,16,10,4.2,3.8,25.1,18.6,27.7,19.6s13.3,1.2,15.7.3c1.4-.5,1.6-3.9,1.6-27.9,0-18-.4-27.6-1-28C468.45,295.61,450.35,295.11,448.35,295.71Z"/><path class="cls-1" d="M494.15,295.51a4.87,4.87,0,0,0-2.7,1.7c-.4.6-.8,12.9-.8,27.2,0,21.5.3,26.4,1.4,27.3s9.9,1.1,33.6.9c27.2-.3,32.2-.5,33-1.8,1.4-2.2,1.2-9-.2-9.5-.7-.3-10.5-.8-21.8-1.3l-20.5-.7-.3-4.4c-.2-2.8.1-4.7,1-5.2.7-.5,9-.9,18.3-.9s17.5-.4,18.2-.8c1.6-1,2.6-5.6,1.8-8.1-.6-2-1.3-2.1-18.9-2.1-19.8,0-20.6-.2-20.6-5.5s.7-5.5,22-5.5c13.9,0,19.9-.3,20.8-1.2,1.3-1.3,1.6-6.7.4-8.4C558.15,296.11,498.15,294.51,494.15,295.51Z"/></g></g></svg>